<svg width="14" height="14" viewBox="0 0 14 14" fill="none" xmlns="http://www.w3.org/2000/svg">
<path d="M5.16672 13.6668L4.90005 11.5335C4.7556 11.4779 4.61949 11.4113 4.49172 11.3335C4.36394 11.2557 4.23894 11.1724 4.11672 11.0835L2.13338 11.9168L0.300049 8.75016L2.01672 7.45016C2.0056 7.37238 2.00005 7.29738 2.00005 7.22516V6.77516C2.00005 6.70294 2.0056 6.62794 2.01672 6.55016L0.300049 5.25016L2.13338 2.0835L4.11672 2.91683C4.23894 2.82794 4.36672 2.74461 4.50005 2.66683C4.63338 2.58905 4.76672 2.52238 4.90005 2.46683L5.16672 0.333496H8.83338L9.10005 2.46683C9.24449 2.52238 9.3806 2.58905 9.50838 2.66683C9.63616 2.74461 9.76116 2.82794 9.88338 2.91683L11.8667 2.0835L13.7 5.25016L11.9834 6.55016C11.9945 6.62794 12 6.70294 12 6.77516V7.22516C12 7.29738 11.9889 7.37238 11.9667 7.45016L13.6834 8.75016L11.85 11.9168L9.88338 11.0835C9.76116 11.1724 9.63338 11.2557 9.50005 11.3335C9.36672 11.4113 9.23338 11.4779 9.10005 11.5335L8.83338 13.6668H5.16672ZM7.03338 9.3335C7.67783 9.3335 8.22783 9.10572 8.68338 8.65016C9.13894 8.19461 9.36672 7.64461 9.36672 7.00016C9.36672 6.35572 9.13894 5.80572 8.68338 5.35016C8.22783 4.89461 7.67783 4.66683 7.03338 4.66683C6.37783 4.66683 5.82505 4.89461 5.37505 5.35016C4.92505 5.80572 4.70005 6.35572 4.70005 7.00016C4.70005 7.64461 4.92505 8.19461 5.37505 8.65016C5.82505 9.10572 6.37783 9.3335 7.03338 9.3335Z" fill="#00174B"/>
</svg>
