<svg width="22" height="18" viewBox="0 0 22 18" fill="none" xmlns="http://www.w3.org/2000/svg">
<path d="M5 18.0008C3.61667 18.0008 2.4375 17.5133 1.4625 16.5383C0.4875 15.5633 0 14.3841 0 13.0008C0 11.6174 0.4875 10.4383 1.4625 9.46328C2.4375 8.48828 3.61667 8.00078 5 8.00078C6.38333 8.00078 7.5625 8.48828 8.5375 9.46328C9.5125 10.4383 10 11.6174 10 13.0008C10 14.3841 9.5125 15.5633 8.5375 16.5383C7.5625 17.5133 6.38333 18.0008 5 18.0008ZM5 14.5008C4.58333 14.5008 4.22917 14.3549 3.9375 14.0633C3.64583 13.7716 3.5 13.4174 3.5 13.0008C3.5 12.5841 3.64583 12.2299 3.9375 11.9383C4.22917 11.6466 4.58333 11.5008 5 11.5008C5.41667 11.5008 5.77083 11.6466 6.0625 11.9383C6.35417 12.2299 6.5 12.5841 6.5 13.0008C6.5 13.4174 6.35417 13.7716 6.0625 14.0633C5.77083 14.3549 5.41667 14.5008 5 14.5008ZM18.5 18.0008C17.5333 18.0008 16.7083 17.6591 16.025 16.9758C15.3417 16.2924 15 15.4674 15 14.5008C15 13.5341 15.3417 12.7091 16.025 12.0258C16.7083 11.3424 17.5333 11.0008 18.5 11.0008C19.4667 11.0008 20.2917 11.3424 20.975 12.0258C21.6583 12.7091 22 13.5341 22 14.5008C22 15.4674 21.6583 16.2924 20.975 16.9758C20.2917 17.6591 19.4667 18.0008 18.5 18.0008ZM3 7.00078C2.71667 7.00078 2.47917 6.90495 2.2875 6.71328C2.09583 6.52161 2 6.28411 2 6.00078C2 5.71745 2.09583 5.47995 2.2875 5.28828C2.47917 5.09661 2.71667 5.00078 3 5.00078H6C6.55 5.00078 7.02083 5.19661 7.4125 5.58828C7.80417 5.97995 8 6.45078 8 7.00078H3ZM5 16.0008C5.83333 16.0008 6.54167 15.7091 7.125 15.1258C7.70833 14.5424 8 13.8341 8 13.0008C8 12.1674 7.70833 11.4591 7.125 10.8758C6.54167 10.2924 5.83333 10.0008 5 10.0008C4.16667 10.0008 3.45833 10.2924 2.875 10.8758C2.29167 11.4591 2 12.1674 2 13.0008C2 13.8341 2.29167 14.5424 2.875 15.1258C3.45833 15.7091 4.16667 16.0008 5 16.0008ZM18.5 16.0008C18.9167 16.0008 19.2708 15.8549 19.5625 15.5633C19.8542 15.2716 20 14.9174 20 14.5008C20 14.0841 19.8542 13.7299 19.5625 13.4383C19.2708 13.1466 18.9167 13.0008 18.5 13.0008C18.0833 13.0008 17.7292 13.1466 17.4375 13.4383C17.1458 13.7299 17 14.0841 17 14.5008C17 14.9174 17.1458 15.2716 17.4375 15.5633C17.7292 15.8549 18.0833 16.0008 18.5 16.0008ZM10.9 14.0008H14.05C14.2167 12.8008 14.7375 11.8424 15.6125 11.1258C16.4875 10.4091 17.475 10.0508 18.575 10.0508C18.9917 10.0508 19.4042 10.1091 19.8125 10.2258C20.2208 10.3424 20.6167 10.5174 21 10.7508V6.00078C21 5.45078 20.8042 4.97995 20.4125 4.58828C20.0208 4.19661 19.55 4.00078 19 4.00078H12.7L11.65 2.90078L13.05 1.50078L12.35 0.800781L8.8 4.35078L9.55 5.05078L10.95 3.65078L12 4.70078V7.00078C12 7.55078 11.8042 8.02161 11.4125 8.41328C11.0208 8.80495 10.55 9.00078 10 9.00078H9.45C9.95 9.55078 10.3292 10.1674 10.5875 10.8508C10.8458 11.5341 10.975 12.2508 10.975 13.0008C10.975 13.1674 10.9708 13.3341 10.9625 13.5008C10.9542 13.6674 10.9333 13.8341 10.9 14.0008Z" fill="#00174B"/>
</svg>
