 <svg xmlns="http://www.w3.org/2000/svg" width="20" height="20" viewBox="0 0 20 20" fill="none">
        <path d="M10.0004 13.8874C10.2208 13.8874 10.4055 13.8128 10.5546 13.6638C10.7037 13.5147 10.7782 13.33 10.7782 13.1096C10.7782 12.8892 10.7037 12.7045 10.5546 12.5554C10.4055 12.4064 10.2208 12.3318 10.0004 12.3318C9.78006 12.3318 9.59534 12.4064 9.44627 12.5554C9.29719 12.7045 9.22266 12.8892 9.22266 13.1096C9.22266 13.33 9.29719 13.5147 9.44627 13.6638C9.59534 13.8128 9.78006 13.8874 10.0004 13.8874ZM9.22266 10.7763H10.7782V6.10959H9.22266V10.7763ZM10.0004 17.7763C8.92451 17.7763 7.9134 17.5721 6.9671 17.1638C6.0208 16.7554 5.19766 16.2013 4.49766 15.5013C3.79766 14.8013 3.24349 13.9781 2.83516 13.0318C2.42682 12.0855 2.22266 11.0744 2.22266 9.99848C2.22266 8.92255 2.42682 7.91144 2.83516 6.96515C3.24349 6.01885 3.79766 5.1957 4.49766 4.4957C5.19766 3.7957 6.0208 3.24154 6.9671 2.8332C7.9134 2.42487 8.92451 2.2207 10.0004 2.2207C11.0764 2.2207 12.0875 2.42487 13.0338 2.8332C13.9801 3.24154 14.8032 3.7957 15.5032 4.4957C16.2032 5.1957 16.7574 6.01885 17.1657 6.96515C17.574 7.91144 17.7782 8.92255 17.7782 9.99848C17.7782 11.0744 17.574 12.0855 17.1657 13.0318C16.7574 13.9781 16.2032 14.8013 15.5032 15.5013C14.8032 16.2013 13.9801 16.7554 13.0338 17.1638C12.0875 17.5721 11.0764 17.7763 10.0004 17.7763Z" fill="#FFB900" />
    </svg>