<svg xmlns="http://www.w3.org/2000/svg" width="14" height="14" viewBox="0 0 14 14" fill="none">
        <path d="M6.18366 9.68268L10.2962 5.57018L9.47949 4.75352L6.18366 8.04935L4.52116 6.38685L3.70449 7.20352L6.18366 9.68268ZM7.00033 12.8327C6.19338 12.8327 5.43505 12.6796 4.72533 12.3733C4.0156 12.0671 3.39824 11.6514 2.87324 11.1264C2.34824 10.6014 1.93262 9.98407 1.62637 9.27435C1.32012 8.56463 1.16699 7.80629 1.16699 6.99935C1.16699 6.1924 1.32012 5.43407 1.62637 4.72435C1.93262 4.01463 2.34824 3.39727 2.87324 2.87227C3.39824 2.34727 4.0156 1.93164 4.72533 1.62539C5.43505 1.31914 6.19338 1.16602 7.00033 1.16602C7.80727 1.16602 8.5656 1.31914 9.27532 1.62539C9.98505 1.93164 10.6024 2.34727 11.1274 2.87227C11.6524 3.39727 12.068 4.01463 12.3743 4.72435C12.6805 5.43407 12.8337 6.1924 12.8337 6.99935C12.8337 7.80629 12.6805 8.56463 12.3743 9.27435C12.068 9.98407 11.6524 10.6014 11.1274 11.1264C10.6024 11.6514 9.98505 12.0671 9.27532 12.3733C8.5656 12.6796 7.80727 12.8327 7.00033 12.8327Z" fill="#3C6A00" />
    </svg>