<svg width="10" height="10" viewBox="0 0 10 10" fill="none" xmlns="http://www.w3.org/2000/svg">
<path d="M5.00022 9.88911C4.17059 9.88911 3.40762 9.70022 2.71133 9.32244C2.01503 8.94466 1.44466 8.44096 1.00022 7.81133V9.00022H0.111328V6.33355H2.77799V7.22244H1.67799C2.03355 7.75577 2.50207 8.1854 3.08355 8.51133C3.66503 8.83725 4.30392 9.00022 5.00022 9.00022C5.55577 9.00022 6.07614 8.89466 6.56133 8.68355C7.04651 8.47244 7.46874 8.18725 7.828 7.828C8.18725 7.46874 8.47244 7.04651 8.68355 6.56133C8.89466 6.07614 9.00022 5.55577 9.00022 5.00022H9.88911C9.88911 5.67429 9.76133 6.30762 9.50577 6.90022C9.25022 7.49281 8.90022 8.01133 8.45577 8.45577C8.01133 8.90022 7.49281 9.25022 6.90022 9.50577C6.30762 9.76133 5.67429 9.88911 5.00022 9.88911ZM4.60022 8.11133V7.53355C4.25207 7.45207 3.96874 7.30207 3.75022 7.08355C3.5317 6.86503 3.37059 6.57799 3.26688 6.22244L4.00022 5.93355C4.08911 6.23725 4.22799 6.46503 4.41688 6.61688C4.60577 6.76874 4.82244 6.84466 5.06688 6.84466C5.31133 6.84466 5.52059 6.78725 5.69466 6.67244C5.86874 6.55762 5.95577 6.378 5.95577 6.13355C5.95577 5.91874 5.86503 5.74466 5.68355 5.61133C5.50207 5.47799 5.178 5.32614 4.71133 5.15577C4.27429 5.00022 3.95392 4.81503 3.75022 4.60022C3.54651 4.3854 3.44466 4.10392 3.44466 3.75577C3.44466 3.45207 3.55022 3.17614 3.76133 2.92799C3.97244 2.67985 4.25948 2.51874 4.62244 2.44466V1.88911H5.40022V2.44466C5.66688 2.46688 5.90948 2.57429 6.128 2.76688C6.34651 2.95948 6.49651 3.1854 6.57799 3.44466L5.86688 3.73355C5.80762 3.56318 5.71133 3.42059 5.57799 3.30577C5.44466 3.19096 5.25948 3.13355 5.02244 3.13355C4.76318 3.13355 4.56503 3.18911 4.428 3.30022C4.29096 3.41133 4.22244 3.56318 4.22244 3.75577C4.22244 3.94837 4.30762 4.10022 4.47799 4.21133C4.64837 4.32244 4.95577 4.45207 5.40022 4.60022C5.93355 4.79281 6.28911 5.01874 6.46688 5.27799C6.64466 5.53725 6.73355 5.82244 6.73355 6.13355C6.73355 6.34837 6.69651 6.53725 6.62244 6.70022C6.54837 6.86318 6.45022 7.00207 6.32799 7.11688C6.20577 7.2317 6.06318 7.32429 5.90022 7.39466C5.73725 7.46503 5.56318 7.51874 5.378 7.55577V8.11133H4.60022ZM0.111328 5.00022C0.111328 4.32614 0.239106 3.69281 0.494661 3.10022C0.750217 2.50762 1.10022 1.98911 1.54466 1.54466C1.98911 1.10022 2.50762 0.750217 3.10022 0.494661C3.69281 0.239106 4.32614 0.111328 5.00022 0.111328C5.82985 0.111328 6.59281 0.300217 7.28911 0.677995C7.9854 1.05577 8.55577 1.55948 9.00022 2.18911V1.00022H9.88911V3.66688H7.22244V2.77799H8.32244C7.96688 2.24466 7.49837 1.81503 6.91688 1.48911C6.3354 1.16318 5.69651 1.00022 5.00022 1.00022C4.44466 1.00022 3.92429 1.10577 3.43911 1.31688C2.95392 1.52799 2.5317 1.81318 2.17244 2.17244C1.81318 2.5317 1.52799 2.95392 1.31688 3.43911C1.10577 3.92429 1.00022 4.44466 1.00022 5.00022H0.111328Z" fill="#757680"/>
</svg>
