<svg width="20" height="20" viewBox="0 0 20 20" fill="none" xmlns="http://www.w3.org/2000/svg">
<mask id="mask0_4651_27945" style="mask-type:alpha" maskUnits="userSpaceOnUse" x="0" y="0" width="20" height="20">
<rect width="20" height="20" fill="#D9D9D9"/>
</mask>
<g mask="url(#mask0_4651_27945)">
<path d="M10 17.4993V2.49935C10 2.26324 10.0799 2.06532 10.2396 1.9056C10.3993 1.74588 10.5972 1.66602 10.8333 1.66602C11.0694 1.66602 11.2674 1.74588 11.4271 1.9056C11.5868 2.06532 11.6667 2.26324 11.6667 2.49935V5.12435L13.7917 3.02018C13.9444 2.8674 14.1354 2.79102 14.3646 2.79102C14.5937 2.79102 14.7917 2.87435 14.9583 3.04102C15.1111 3.19379 15.1875 3.38824 15.1875 3.62435C15.1875 3.86046 15.1111 4.0549 14.9583 4.20768L11.6667 7.49935V9.16602H13.3333L16.625 5.87435C16.7778 5.72157 16.9722 5.64518 17.2083 5.64518C17.4444 5.64518 17.6389 5.72157 17.7917 5.87435C17.9444 6.02713 18.0208 6.22157 18.0208 6.45768C18.0208 6.69379 17.9444 6.88824 17.7917 7.04102L15.7083 9.16602H18.3333C18.5694 9.16602 18.7674 9.24588 18.9271 9.4056C19.0868 9.56532 19.1667 9.76324 19.1667 9.99935C19.1667 10.2355 19.0868 10.4334 18.9271 10.5931C18.7674 10.7528 18.5694 10.8327 18.3333 10.8327H15.7083L17.8125 12.9577C17.9653 13.1105 18.0417 13.3014 18.0417 13.5306C18.0417 13.7598 17.9583 13.9577 17.7917 14.1243C17.6389 14.2771 17.4444 14.3535 17.2083 14.3535C16.9722 14.3535 16.7778 14.2771 16.625 14.1243L13.3333 10.8327H11.6667V12.4993L14.9583 15.791C15.1111 15.9438 15.1875 16.1382 15.1875 16.3743C15.1875 16.6105 15.1111 16.8049 14.9583 16.9577C14.8056 17.1105 14.6111 17.1868 14.375 17.1868C14.1389 17.1868 13.9444 17.1105 13.7917 16.9577L11.6667 14.8743V17.4993C11.6667 17.7355 11.5868 17.9334 11.4271 18.0931C11.2674 18.2528 11.0694 18.3327 10.8333 18.3327C10.5972 18.3327 10.3993 18.2528 10.2396 18.0931C10.0799 17.9334 10 17.7355 10 17.4993Z" fill="#003EA8"/>
<path d="M5.00016 18.3327C3.84738 18.3327 2.86475 17.9264 2.05225 17.1139C1.23975 16.3014 0.833496 15.3188 0.833496 14.166C0.833496 13.4993 0.979329 12.8778 1.271 12.3014C1.56266 11.725 1.97238 11.2355 2.50016 10.8327V4.16602C2.50016 3.47157 2.74322 2.88129 3.22933 2.39518C3.71544 1.90907 4.30572 1.66602 5.00016 1.66602C5.69461 1.66602 6.28488 1.90907 6.771 2.39518C7.25711 2.88129 7.50016 3.47157 7.50016 4.16602V10.8327C8.02794 11.2355 8.43766 11.725 8.72933 12.3014C9.021 12.8778 9.16683 13.4993 9.16683 14.166C9.16683 15.3188 8.76058 16.3014 7.94808 17.1139C7.13558 17.9264 6.15294 18.3327 5.00016 18.3327ZM4.16683 9.16602H5.8335V8.33268H5.00016V7.49935H5.8335V5.83268H5.00016V4.99935H5.8335V4.16602C5.8335 3.9299 5.75363 3.73199 5.59391 3.57227C5.43419 3.41254 5.23627 3.33268 5.00016 3.33268C4.76405 3.33268 4.56613 3.41254 4.40641 3.57227C4.24669 3.73199 4.16683 3.9299 4.16683 4.16602V9.16602Z" fill="#003EA8"/>
</g>
</svg>
