  <svg width="14" height="14" viewBox="0 0 14 14" fill="none" xmlns="http://www.w3.org/2000/svg">
        <path d="M2.99967 8.33398H8.33301V7.00065H2.99967V8.33398ZM2.99967 6.33398H10.9997V5.00065H2.99967V6.33398ZM2.99967 4.33398H10.9997V3.00065H2.99967V4.33398ZM0.333008 13.6673V1.66732C0.333008 1.30065 0.463563 0.986762 0.724674 0.725651C0.985786 0.46454 1.29967 0.333984 1.66634 0.333984H12.333C12.6997 0.333984 13.0136 0.46454 13.2747 0.725651C13.5358 0.986762 13.6663 1.30065 13.6663 1.66732V9.66732C13.6663 10.034 13.5358 10.3479 13.2747 10.609C13.0136 10.8701 12.6997 11.0007 12.333 11.0007H2.99967L0.333008 13.6673ZM2.43301 9.66732H12.333V1.66732H1.66634V10.4173L2.43301 9.66732Z" fill="#003EA8" />
    </svg>