<svg width="16" height="16" viewBox="0 0 16 16" fill="none" xmlns="http://www.w3.org/2000/svg">
<path d="M9.66667 14.3333C9.47778 14.3333 9.31944 14.2694 9.19167 14.1417C9.06389 14.0139 9 13.8556 9 13.6667V12.95C8.74444 12.9056 8.50278 12.8417 8.275 12.7583C8.04722 12.675 7.83333 12.5611 7.63333 12.4167L6.96667 13.0833C6.83333 13.2056 6.675 13.2694 6.49167 13.275C6.30833 13.2806 6.15 13.2167 6.01667 13.0833C5.88333 12.95 5.81667 12.7917 5.81667 12.6083C5.81667 12.425 5.88333 12.2667 6.01667 12.1333L6.7 11.45C6.66667 11.3944 6.63333 11.3361 6.6 11.275C6.56667 11.2139 6.53333 11.1556 6.5 11.1L6.05 10.2167L5.23333 11.0333C5.1 11.1556 4.94444 11.2194 4.76667 11.225C4.58889 11.2306 4.43333 11.1667 4.3 11.0333C4.16667 10.9 4.1 10.7444 4.1 10.5667C4.1 10.3889 4.16667 10.2333 4.3 10.1L5.11667 9.26667L4.23333 8.83333C4.17778 8.81111 4.12778 8.78611 4.08333 8.75833C4.03889 8.73056 3.98889 8.7 3.93333 8.66667L3.33333 9.26667C3.2 9.38889 3.04167 9.45278 2.85833 9.45833C2.675 9.46389 2.51667 9.4 2.38333 9.26667C2.25 9.13333 2.18333 8.97778 2.18333 8.8C2.18333 8.62222 2.25 8.46667 2.38333 8.33333L2.96667 7.75C2.81111 7.53889 2.68611 7.31389 2.59167 7.075C2.49722 6.83611 2.42778 6.58889 2.38333 6.33333H1.66667C1.47778 6.33333 1.31944 6.26944 1.19167 6.14167C1.06389 6.01389 1 5.85556 1 5.66667C1 5.47778 1.06389 5.31944 1.19167 5.19167C1.31944 5.06389 1.47778 5 1.66667 5H2.41667C2.47222 4.78889 2.53889 4.58889 2.61667 4.4C2.69444 4.21111 2.79444 4.02778 2.91667 3.85L2.33333 3.26667C2.2 3.13333 2.13333 2.97778 2.13333 2.8C2.13333 2.62222 2.2 2.46667 2.33333 2.33333C2.46667 2.2 2.62222 2.13333 2.8 2.13333C2.97778 2.13333 3.13333 2.2 3.26667 2.33333L3.85 2.91667C4.02778 2.79444 4.21111 2.69444 4.4 2.61667C4.58889 2.53889 4.78889 2.47222 5 2.41667V1.66667C5 1.47778 5.06389 1.31944 5.19167 1.19167C5.31944 1.06389 5.47778 1 5.66667 1C5.85556 1 6.01389 1.06389 6.14167 1.19167C6.26944 1.31944 6.33333 1.47778 6.33333 1.66667V2.38333C6.6 2.42778 6.85278 2.5 7.09167 2.6C7.33055 2.7 7.55556 2.82778 7.76667 2.98333L8.35 2.4C8.48333 2.26667 8.64167 2.2 8.825 2.2C9.00833 2.2 9.16667 2.26667 9.3 2.4C9.43333 2.53333 9.5 2.68889 9.5 2.86667C9.5 3.04444 9.43333 3.2 9.3 3.33333L8.68333 3.95C8.70555 3.99444 8.73056 4.03889 8.75833 4.08333C8.78611 4.12778 8.81111 4.17778 8.83333 4.23333L9.25 5.06667L10.0167 4.3C10.15 4.16667 10.3083 4.1 10.4917 4.1C10.675 4.1 10.8333 4.16667 10.9667 4.3C11.1 4.43333 11.1667 4.59167 11.1667 4.775C11.1667 4.95833 11.1 5.11667 10.9667 5.25L10.1667 6.03333L11.1 6.5C11.1667 6.53333 11.2361 6.56944 11.3083 6.60833C11.3806 6.64722 11.4444 6.68889 11.5 6.73333L12.1667 6.06667C12.3 5.93333 12.4556 5.86667 12.6333 5.86667C12.8111 5.86667 12.9667 5.93333 13.1 6.06667C13.2333 6.2 13.3 6.35833 13.3 6.54167C13.3 6.725 13.2333 6.88333 13.1 7.01667L12.4333 7.66667C12.5667 7.86667 12.675 8.07778 12.7583 8.3C12.8417 8.52222 12.9056 8.75556 12.95 9H13.6667C13.8556 9 14.0139 9.06389 14.1417 9.19167C14.2694 9.31944 14.3333 9.47778 14.3333 9.66667C14.3333 9.85555 14.2694 10.0139 14.1417 10.1417C14.0139 10.2694 13.8556 10.3333 13.6667 10.3333H12.9167C12.8611 10.5444 12.7944 10.7417 12.7167 10.925C12.6389 11.1083 12.5389 11.2889 12.4167 11.4667L12.9833 12.0333C13.1167 12.1667 13.1833 12.325 13.1833 12.5083C13.1833 12.6917 13.1167 12.85 12.9833 12.9833C12.85 13.1056 12.6917 13.1694 12.5083 13.175C12.325 13.1806 12.1667 13.1167 12.0333 12.9833L11.4833 12.4167C11.3056 12.5389 11.1222 12.6389 10.9333 12.7167C10.7444 12.7944 10.5444 12.8611 10.3333 12.9167V13.6667C10.3333 13.8556 10.2694 14.0139 10.1417 14.1417C10.0139 14.2694 9.85555 14.3333 9.66667 14.3333ZM6 6.66667C6.27778 6.66667 6.51389 6.56944 6.70833 6.375C6.90278 6.18056 7 5.94444 7 5.66667C7 5.38889 6.90278 5.15278 6.70833 4.95833C6.51389 4.76389 6.27778 4.66667 6 4.66667C5.72222 4.66667 5.48611 4.76389 5.29167 4.95833C5.09722 5.15278 5 5.38889 5 5.66667C5 5.94444 5.09722 6.18056 5.29167 6.375C5.48611 6.56944 5.72222 6.66667 6 6.66667ZM9.33333 10.8333C9.56667 10.8333 9.76389 10.7528 9.925 10.5917C10.0861 10.4306 10.1667 10.2333 10.1667 10C10.1667 9.76667 10.0861 9.56944 9.925 9.40833C9.76389 9.24722 9.56667 9.16667 9.33333 9.16667C9.1 9.16667 8.90278 9.24722 8.74167 9.40833C8.58055 9.56944 8.5 9.76667 8.5 10C8.5 10.2333 8.58055 10.4306 8.74167 10.5917C8.90278 10.7528 9.1 10.8333 9.33333 10.8333Z" fill="#00174B"/>
</svg>
