 <svg width="12" height="15" viewBox="0 0 12 15" fill="none" xmlns="http://www.w3.org/2000/svg">
        <path d="M3.33366 11.5007H8.66699V10.1673H3.33366V11.5007ZM3.33366 8.83398H8.66699V7.50065H3.33366V8.83398ZM2.00033 14.1673C1.63366 14.1673 1.31977 14.0368 1.05866 13.7757C0.797548 13.5145 0.666992 13.2007 0.666992 12.834V2.16732C0.666992 1.80065 0.797548 1.48676 1.05866 1.22565C1.31977 0.96454 1.63366 0.833984 2.00033 0.833984H7.33366L11.3337 4.83398V12.834C11.3337 13.2007 11.2031 13.5145 10.942 13.7757C10.6809 14.0368 10.367 14.1673 10.0003 14.1673H2.00033ZM6.66699 5.50065V2.16732H2.00033V12.834H10.0003V5.50065H6.66699Z" fill="#003EA8" />
    </svg>