<svg width="20" height="20" viewBox="0 0 20 20" fill="none" xmlns="http://www.w3.org/2000/svg">
<mask id="mask0_4527_28683" style="mask-type:alpha" maskUnits="userSpaceOnUse" x="0" y="0" width="20" height="20">
<rect width="20" height="20" fill="#D9D9D9"/>
</mask>
<g mask="url(#mask0_4527_28683)">
<path d="M3.3335 11.4993C3.3335 10.1105 3.88558 8.60004 4.98975 6.9681C6.09391 5.33615 7.76405 3.56879 10.0002 1.66602C11.6391 3.0549 12.9689 4.37435 13.9897 5.62435C15.0106 6.87435 15.7432 8.06185 16.1877 9.18685H14.3752C13.9863 8.39518 13.4307 7.55838 12.7085 6.67643C11.9863 5.79449 11.0835 4.86046 10.0002 3.87435C8.34738 5.38824 7.10086 6.78407 6.26058 8.06185C5.4203 9.33963 5.00016 10.4855 5.00016 11.4993C5.00016 12.9855 5.47239 14.2181 6.41683 15.1973C7.36127 16.1764 8.55572 16.666 10.0002 16.666V18.3327C8.09738 18.3327 6.51058 17.6799 5.23975 16.3743C3.96891 15.0688 3.3335 13.4438 3.3335 11.4993ZM12.3335 18.7285L11.9793 17.9368C11.8682 17.7007 11.7884 17.4542 11.7397 17.1973C11.6911 16.9403 11.6668 16.6799 11.6668 16.416C11.6668 16.1105 11.7016 15.8084 11.771 15.5098C11.8404 15.2112 11.9446 14.923 12.0835 14.6452C12.1946 14.4091 12.2918 14.1695 12.3752 13.9264C12.4585 13.6834 12.5002 13.4299 12.5002 13.166C12.5002 12.9577 12.4759 12.7563 12.4272 12.5618C12.3786 12.3674 12.3127 12.173 12.2293 11.9785L11.9377 11.3535L13.0835 10.8535L13.4377 11.6035C13.5488 11.8396 13.6286 12.0896 13.6772 12.3535C13.7259 12.6174 13.7502 12.8882 13.7502 13.166C13.7502 13.4716 13.7154 13.7702 13.646 14.0618C13.5766 14.3535 13.4724 14.6382 13.3335 14.916C13.2224 15.1521 13.1252 15.3952 13.0418 15.6452C12.9585 15.8952 12.9168 16.1521 12.9168 16.416C12.9168 16.6105 12.9377 16.8014 12.9793 16.9889C13.021 17.1764 13.0835 17.3605 13.1668 17.541L13.4793 18.2285L12.3335 18.7285ZM14.8335 18.7285L14.4793 17.9368C14.3682 17.7007 14.2884 17.4542 14.2397 17.1973C14.1911 16.9403 14.1668 16.6799 14.1668 16.416C14.1668 16.1105 14.2016 15.8084 14.271 15.5098C14.3404 15.2112 14.4446 14.923 14.5835 14.6452C14.6946 14.4091 14.7918 14.1695 14.8752 13.9264C14.9585 13.6834 15.0002 13.4299 15.0002 13.166C15.0002 12.9577 14.9759 12.7563 14.9272 12.5618C14.8786 12.3674 14.8127 12.173 14.7293 11.9785L14.4377 11.3535L15.5835 10.8535L15.9377 11.6035C16.0488 11.8535 16.1286 12.107 16.1772 12.3639C16.2259 12.6209 16.2502 12.8882 16.2502 13.166C16.2502 13.4716 16.2154 13.7702 16.146 14.0618C16.0766 14.3535 15.9724 14.6382 15.8335 14.916C15.7224 15.1521 15.6252 15.3952 15.5418 15.6452C15.4585 15.8952 15.4168 16.1521 15.4168 16.416C15.4168 16.6105 15.4377 16.8014 15.4793 16.9889C15.521 17.1764 15.5835 17.3605 15.6668 17.541L15.9793 18.2285L14.8335 18.7285ZM17.3335 18.7285L16.9793 17.9368C16.8682 17.7007 16.7884 17.4542 16.7397 17.1973C16.6911 16.9403 16.6668 16.6799 16.6668 16.416C16.6668 16.1105 16.7016 15.8084 16.771 15.5098C16.8404 15.2112 16.9446 14.923 17.0835 14.6452C17.1946 14.4091 17.2918 14.1695 17.3752 13.9264C17.4585 13.6834 17.5002 13.4299 17.5002 13.166C17.5002 12.9577 17.4759 12.7563 17.4272 12.5618C17.3786 12.3674 17.3127 12.173 17.2293 11.9785L16.9377 11.3535L18.0835 10.8535L18.4377 11.6035C18.5488 11.8396 18.6286 12.0896 18.6772 12.3535C18.7259 12.6174 18.7502 12.8882 18.7502 13.166C18.7502 13.4716 18.7154 13.7737 18.646 14.0723C18.5766 14.3709 18.4724 14.6591 18.3335 14.9368C18.2224 15.173 18.1252 15.4125 18.0418 15.6556C17.9585 15.8987 17.9168 16.1521 17.9168 16.416C17.9168 16.6105 17.9377 16.8014 17.9793 16.9889C18.021 17.1764 18.0835 17.3605 18.1668 17.541L18.4793 18.2285L17.3335 18.7285Z" fill="#003EA8"/>
</g>
</svg>
