<svg width="15" height="14" viewBox="0 0 15 14" fill="none" xmlns="http://www.w3.org/2000/svg">
<path d="M2.99992 13.3332C2.26659 13.3332 1.63881 13.0721 1.11659 12.5498C0.594363 12.0276 0.333252 11.3998 0.333252 10.6665C0.333252 9.93317 0.594363 9.30539 1.11659 8.78317C1.63881 8.26095 2.26659 7.99984 2.99992 7.99984C3.53325 7.99984 4.02492 8.14428 4.47492 8.43317C4.92492 8.72206 5.24992 9.1165 5.44992 9.6165L5.61659 9.99984H6.01659C6.48325 9.99984 6.87492 10.1609 7.19159 10.4832C7.50825 10.8054 7.66659 11.1998 7.66659 11.6665C7.66659 12.1332 7.50547 12.5276 7.18325 12.8498C6.86103 13.1721 6.46659 13.3332 5.99992 13.3332H2.99992ZM8.98325 11.4665C8.93881 10.7665 8.68603 10.1609 8.22492 9.64984C7.76381 9.13873 7.18325 8.82206 6.48325 8.69984C6.13881 8.09984 5.67492 7.62484 5.09159 7.27484C4.50825 6.92484 3.86659 6.72206 3.16659 6.6665C3.45547 5.85539 3.94992 5.20817 4.64992 4.72484C5.34992 4.2415 6.13325 3.99984 6.99992 3.99984C8.11103 3.99984 9.05547 4.38873 9.83325 5.1665C10.611 5.94428 10.9999 6.88873 10.9999 7.99984C10.9999 8.72206 10.8221 9.3915 10.4666 10.0082C10.111 10.6248 9.61659 11.1109 8.98325 11.4665ZM6.33325 3.33317V0.666504H7.66659V3.33317H6.33325ZM10.7666 5.1665L9.83325 4.23317L11.6999 2.33317L12.6499 3.28317L10.7666 5.1665ZM11.6666 8.6665V7.33317H14.3333V8.6665H11.6666ZM11.6999 13.6665L9.83325 11.7665L10.7666 10.8332L12.6666 12.6998L11.6999 13.6665ZM3.23325 5.1665L1.34992 3.28317L2.29992 2.33317L4.16659 4.23317L3.23325 5.1665Z" fill="#00174B"/>
</svg>
