<svg width="20" height="20" viewBox="0 0 20 20" fill="none" xmlns="http://www.w3.org/2000/svg">
<g filter="url(#filter0_ddd_3948_24894)">
<path d="M5.26683 12.4003C4.6335 11.7336 4.15294 10.9947 3.82516 10.1836C3.49739 9.37248 3.3335 8.53359 3.3335 7.66693C3.3335 6.80026 3.49739 5.96137 3.82516 5.15026C4.15294 4.33915 4.6335 3.60026 5.26683 2.93359L6.06683 3.73359C5.5335 4.26693 5.1335 4.88082 4.86683 5.57526C4.60016 6.26971 4.46683 6.96693 4.46683 7.66693C4.46683 8.36693 4.60016 9.06415 4.86683 9.75859C5.1335 10.453 5.5335 11.0669 6.06683 11.6003L5.26683 12.4003ZM6.86683 10.8003C6.4335 10.3669 6.10294 9.87804 5.87516 9.33359C5.64739 8.78915 5.5335 8.23359 5.5335 7.66693C5.5335 7.10026 5.64739 6.54471 5.87516 6.00026C6.10294 5.45582 6.4335 4.96693 6.86683 4.53359L7.66683 5.33359C7.3335 5.63359 7.0835 5.98915 6.91683 6.40026C6.75016 6.81137 6.66683 7.23359 6.66683 7.66693C6.66683 8.06693 6.75016 8.47248 6.91683 8.88359C7.0835 9.29471 7.3335 9.66693 7.66683 10.0003L6.86683 10.8003ZM6.66683 15.6669L8.91683 8.91693C8.73905 8.76137 8.59739 8.57804 8.49183 8.36693C8.38627 8.15582 8.3335 7.92248 8.3335 7.66693C8.3335 7.20026 8.49461 6.80582 8.81683 6.48359C9.13905 6.16137 9.5335 6.00026 10.0002 6.00026C10.4668 6.00026 10.8613 6.16137 11.1835 6.48359C11.5057 6.80582 11.6668 7.20026 11.6668 7.66693C11.6668 7.92248 11.6141 8.15582 11.5085 8.36693C11.4029 8.57804 11.2613 8.76137 11.0835 8.91693L13.3335 15.6669H12.0002L11.5668 14.3336H8.45016L8.00016 15.6669H6.66683ZM8.8835 13.0003H11.1168L10.0002 9.66693L8.8835 13.0003ZM13.1335 10.8003L12.3335 10.0003C12.6668 9.70026 12.9168 9.34471 13.0835 8.93359C13.2502 8.52248 13.3335 8.10026 13.3335 7.66693C13.3335 7.26693 13.2502 6.86137 13.0835 6.45026C12.9168 6.03915 12.6668 5.66693 12.3335 5.33359L13.1335 4.53359C13.5668 4.96693 13.8891 5.45582 14.1002 6.00026C14.3113 6.54471 14.4335 7.10026 14.4668 7.66693C14.4668 8.23359 14.3529 8.78915 14.1252 9.33359C13.8974 9.87804 13.5668 10.3669 13.1335 10.8003ZM14.7335 12.4003L13.9335 11.6003C14.4668 11.0669 14.8668 10.453 15.1335 9.75859C15.4002 9.06415 15.5335 8.36693 15.5335 7.66693C15.5335 6.96693 15.4002 6.26971 15.1335 5.57526C14.8668 4.88082 14.4668 4.26693 13.9335 3.73359L14.7335 2.93359C15.3668 3.60026 15.8474 4.33915 16.1752 5.15026C16.5029 5.96137 16.6668 6.80026 16.6668 7.66693C16.6668 8.53359 16.5113 9.37248 16.2002 10.1836C15.8891 10.9947 15.4002 11.7336 14.7335 12.4003Z" fill="white"/>
</g>
<defs>
<filter id="filter0_ddd_3948_24894" x="0.333496" y="0.933594" width="19.3335" height="18.7324" filterUnits="userSpaceOnUse" color-interpolation-filters="sRGB">
<feFlood flood-opacity="0" result="BackgroundImageFix"/>
<feColorMatrix in="SourceAlpha" type="matrix" values="0 0 0 0 0 0 0 0 0 0 0 0 0 0 0 0 0 0 127 0" result="hardAlpha"/>
<feMorphology radius="1" operator="erode" in="SourceAlpha" result="effect1_dropShadow_3948_24894"/>
<feOffset dy="2"/>
<feGaussianBlur stdDeviation="0.5"/>
<feComposite in2="hardAlpha" operator="out"/>
<feColorMatrix type="matrix" values="0 0 0 0 0 0 0 0 0 0 0 0 0 0 0 0 0 0 0.2 0"/>
<feBlend mode="normal" in2="BackgroundImageFix" result="effect1_dropShadow_3948_24894"/>
<feColorMatrix in="SourceAlpha" type="matrix" values="0 0 0 0 0 0 0 0 0 0 0 0 0 0 0 0 0 0 127 0" result="hardAlpha"/>
<feOffset dy="1"/>
<feGaussianBlur stdDeviation="0.5"/>
<feComposite in2="hardAlpha" operator="out"/>
<feColorMatrix type="matrix" values="0 0 0 0 0 0 0 0 0 0 0 0 0 0 0 0 0 0 0.14 0"/>
<feBlend mode="normal" in2="effect1_dropShadow_3948_24894" result="effect2_dropShadow_3948_24894"/>
<feColorMatrix in="SourceAlpha" type="matrix" values="0 0 0 0 0 0 0 0 0 0 0 0 0 0 0 0 0 0 127 0" result="hardAlpha"/>
<feOffset dy="1"/>
<feGaussianBlur stdDeviation="1.5"/>
<feComposite in2="hardAlpha" operator="out"/>
<feColorMatrix type="matrix" values="0 0 0 0 0 0 0 0 0 0 0 0 0 0 0 0 0 0 0.12 0"/>
<feBlend mode="normal" in2="effect2_dropShadow_3948_24894" result="effect3_dropShadow_3948_24894"/>
<feBlend mode="normal" in="SourceGraphic" in2="effect3_dropShadow_3948_24894" result="shape"/>
</filter>
</defs>
</svg>
