<svg width="14" height="14" viewBox="0 0 14 14" fill="none" xmlns="http://www.w3.org/2000/svg">
<path d="M2.26659 10.3998C1.63325 9.73311 1.1527 8.99422 0.824919 8.18311C0.497141 7.37199 0.333252 6.53311 0.333252 5.66644C0.333252 4.79977 0.497141 3.96088 0.824919 3.14977C1.1527 2.33866 1.63325 1.59977 2.26659 0.933105L3.06659 1.73311C2.53325 2.26644 2.13325 2.88033 1.86659 3.57477C1.59992 4.26922 1.46659 4.96644 1.46659 5.66644C1.46659 6.36644 1.59992 7.06366 1.86659 7.75811C2.13325 8.45255 2.53325 9.06644 3.06659 9.59977L2.26659 10.3998ZM3.86659 8.79977C3.43325 8.36644 3.1027 7.87755 2.87492 7.33311C2.64714 6.78866 2.53325 6.23311 2.53325 5.66644C2.53325 5.09977 2.64714 4.54422 2.87492 3.99977C3.1027 3.45533 3.43325 2.96644 3.86659 2.53311L4.66658 3.33311C4.33325 3.63311 4.08325 3.98866 3.91658 4.39977C3.74992 4.81088 3.66658 5.23311 3.66658 5.66644C3.66658 6.06644 3.74992 6.47199 3.91658 6.88311C4.08325 7.29422 4.33325 7.66644 4.66658 7.99977L3.86659 8.79977ZM3.66658 13.6664L5.91658 6.91644C5.73881 6.76088 5.59714 6.57755 5.49158 6.36644C5.38603 6.15533 5.33325 5.92199 5.33325 5.66644C5.33325 5.19977 5.49436 4.80533 5.81659 4.48311C6.13881 4.16088 6.53325 3.99977 6.99992 3.99977C7.46658 3.99977 7.86103 4.16088 8.18325 4.48311C8.50547 4.80533 8.66658 5.19977 8.66658 5.66644C8.66658 5.92199 8.61381 6.15533 8.50825 6.36644C8.4027 6.57755 8.26103 6.76088 8.08325 6.91644L10.3333 13.6664H8.99992L8.56658 12.3331H5.44992L4.99992 13.6664H3.66658ZM5.88325 10.9998H8.11658L6.99992 7.66644L5.88325 10.9998ZM10.1333 8.79977L9.33325 7.99977C9.66658 7.69977 9.91658 7.34422 10.0833 6.93311C10.2499 6.52199 10.3333 6.09977 10.3333 5.66644C10.3333 5.26644 10.2499 4.86088 10.0833 4.44977C9.91658 4.03866 9.66658 3.66644 9.33325 3.33311L10.1333 2.53311C10.5666 2.96644 10.8888 3.45533 11.0999 3.99977C11.311 4.54422 11.4333 5.09977 11.4666 5.66644C11.4666 6.23311 11.3527 6.78866 11.1249 7.33311C10.8971 7.87755 10.5666 8.36644 10.1333 8.79977ZM11.7333 10.3998L10.9333 9.59977C11.4666 9.06644 11.8666 8.45255 12.1333 7.75811C12.3999 7.06366 12.5333 6.36644 12.5333 5.66644C12.5333 4.96644 12.3999 4.26922 12.1333 3.57477C11.8666 2.88033 11.4666 2.26644 10.9333 1.73311L11.7333 0.933105C12.3666 1.59977 12.8471 2.33866 13.1749 3.14977C13.5027 3.96088 13.6666 4.79977 13.6666 5.66644C13.6666 6.53311 13.511 7.37199 13.1999 8.18311C12.8888 8.99422 12.3999 9.73311 11.7333 10.3998Z" fill="#00174B"/>
</svg>
