<svg width="14" height="14" viewBox="0 0 14 14" fill="none" xmlns="http://www.w3.org/2000/svg">
<path d="M6.99998 7.00016C6.8111 7.00016 6.65276 6.93627 6.52498 6.8085C6.39721 6.68072 6.33332 6.52238 6.33332 6.3335C6.33332 6.14461 6.39721 5.98627 6.52498 5.8585C6.65276 5.73072 6.8111 5.66683 6.99998 5.66683C7.18887 5.66683 7.34721 5.73072 7.47498 5.8585C7.60276 5.98627 7.66665 6.14461 7.66665 6.3335C7.66665 6.52238 7.60276 6.68072 7.47498 6.8085C7.34721 6.93627 7.18887 7.00016 6.99998 7.00016ZM6.99998 4.3335C6.8111 4.3335 6.65276 4.26961 6.52498 4.14183C6.39721 4.01405 6.33332 3.85572 6.33332 3.66683C6.33332 3.47794 6.39721 3.31961 6.52498 3.19183C6.65276 3.06405 6.8111 3.00016 6.99998 3.00016C7.18887 3.00016 7.34721 3.06405 7.47498 3.19183C7.60276 3.31961 7.66665 3.47794 7.66665 3.66683C7.66665 3.85572 7.60276 4.01405 7.47498 4.14183C7.34721 4.26961 7.18887 4.3335 6.99998 4.3335ZM6.99998 1.66683C6.8111 1.66683 6.65276 1.60294 6.52498 1.47516C6.39721 1.34738 6.33332 1.18905 6.33332 1.00016C6.33332 0.811274 6.39721 0.652941 6.52498 0.525163C6.65276 0.397385 6.8111 0.333496 6.99998 0.333496C7.18887 0.333496 7.34721 0.397385 7.47498 0.525163C7.60276 0.652941 7.66665 0.811274 7.66665 1.00016C7.66665 1.18905 7.60276 1.34738 7.47498 1.47516C7.34721 1.60294 7.18887 1.66683 6.99998 1.66683ZM8.99998 8.3335C8.8111 8.3335 8.65276 8.26961 8.52498 8.14183C8.39721 8.01405 8.33332 7.85572 8.33332 7.66683C8.33332 7.47794 8.39721 7.31961 8.52498 7.19183C8.65276 7.06405 8.8111 7.00016 8.99998 7.00016C9.18887 7.00016 9.34721 7.06405 9.47498 7.19183C9.60276 7.31961 9.66665 7.47794 9.66665 7.66683C9.66665 7.85572 9.60276 8.01405 9.47498 8.14183C9.34721 8.26961 9.18887 8.3335 8.99998 8.3335ZM10.8833 6.4335C10.6944 6.4335 10.5361 6.36961 10.4083 6.24183C10.2805 6.11405 10.2167 5.95572 10.2167 5.76683C10.2167 5.57794 10.2805 5.41961 10.4083 5.29183C10.5361 5.16405 10.6944 5.10016 10.8833 5.10016C11.0722 5.10016 11.2305 5.16405 11.3583 5.29183C11.4861 5.41961 11.55 5.57794 11.55 5.76683C11.55 5.95572 11.4861 6.11405 11.3583 6.24183C11.2305 6.36961 11.0722 6.4335 10.8833 6.4335ZM12.7667 4.56683C12.5778 4.56683 12.4194 4.50294 12.2917 4.37516C12.1639 4.24738 12.1 4.08905 12.1 3.90016C12.1 3.71127 12.1639 3.55294 12.2917 3.42516C12.4194 3.29738 12.5778 3.2335 12.7667 3.2335C12.9555 3.2335 13.1139 3.29738 13.2417 3.42516C13.3694 3.55294 13.4333 3.71127 13.4333 3.90016C13.4333 4.08905 13.3694 4.24738 13.2417 4.37516C13.1139 4.50294 12.9555 4.56683 12.7667 4.56683ZM4.99998 8.3335C4.8111 8.3335 4.65276 8.26961 4.52498 8.14183C4.39721 8.01405 4.33332 7.85572 4.33332 7.66683C4.33332 7.47794 4.39721 7.31961 4.52498 7.19183C4.65276 7.06405 4.8111 7.00016 4.99998 7.00016C5.18887 7.00016 5.34721 7.06405 5.47498 7.19183C5.60276 7.31961 5.66665 7.47794 5.66665 7.66683C5.66665 7.85572 5.60276 8.01405 5.47498 8.14183C5.34721 8.26961 5.18887 8.3335 4.99998 8.3335ZM3.11665 6.4335C2.92776 6.4335 2.76943 6.36961 2.64165 6.24183C2.51387 6.11405 2.44998 5.95572 2.44998 5.76683C2.44998 5.57794 2.51387 5.41961 2.64165 5.29183C2.76943 5.16405 2.92776 5.10016 3.11665 5.10016C3.30554 5.10016 3.46387 5.16405 3.59165 5.29183C3.71943 5.41961 3.78332 5.57794 3.78332 5.76683C3.78332 5.95572 3.71943 6.11405 3.59165 6.24183C3.46387 6.36961 3.30554 6.4335 3.11665 6.4335ZM1.23332 4.56683C1.04443 4.56683 0.886095 4.50294 0.758317 4.37516C0.630539 4.24738 0.56665 4.08905 0.56665 3.90016C0.56665 3.71127 0.630539 3.55294 0.758317 3.42516C0.886095 3.29738 1.04443 3.2335 1.23332 3.2335C1.42221 3.2335 1.58054 3.29738 1.70832 3.42516C1.83609 3.55294 1.89998 3.71127 1.89998 3.90016C1.89998 4.08905 1.83609 4.24738 1.70832 4.37516C1.58054 4.50294 1.42221 4.56683 1.23332 4.56683ZM6.33332 13.6668V11.0002H3.66665V9.66683H10.3333V11.0002H7.66665V13.6668H6.33332Z" fill="#00174B"/>
</svg>
