<svg width="12" height="12" viewBox="0 0 12 12" fill="none" xmlns="http://www.w3.org/2000/svg">
<path d="M7.66667 5.33333C7.38889 5.33333 7.15278 5.23611 6.95833 5.04167C6.76389 4.84722 6.66667 4.61111 6.66667 4.33333C6.66667 4.18889 6.71944 4.02222 6.825 3.83333C6.93056 3.64444 7.04444 3.46389 7.16667 3.29167C7.28889 3.11944 7.40278 2.97222 7.50833 2.85L7.66667 2.66667L7.825 2.85C7.93055 2.97222 8.04444 3.11944 8.16667 3.29167C8.28889 3.46389 8.40278 3.64444 8.50833 3.83333C8.61389 4.02222 8.66667 4.18889 8.66667 4.33333C8.66667 4.61111 8.56944 4.84722 8.375 5.04167C8.18056 5.23611 7.94444 5.33333 7.66667 5.33333ZM10.3333 3.33333C10.0556 3.33333 9.81944 3.23611 9.625 3.04167C9.43056 2.84722 9.33333 2.61111 9.33333 2.33333C9.33333 2.18889 9.38611 2.02222 9.49167 1.83333C9.59722 1.64444 9.71111 1.46389 9.83333 1.29167C9.95555 1.11944 10.0694 0.972222 10.175 0.85L10.3333 0.666667L10.4917 0.85C10.5972 0.972222 10.7111 1.11944 10.8333 1.29167C10.9556 1.46389 11.0694 1.64444 11.175 1.83333C11.2806 2.02222 11.3333 2.18889 11.3333 2.33333C11.3333 2.61111 11.2361 2.84722 11.0417 3.04167C10.8472 3.23611 10.6111 3.33333 10.3333 3.33333ZM10.3333 7.33333C10.0556 7.33333 9.81944 7.23611 9.625 7.04167C9.43056 6.84722 9.33333 6.61111 9.33333 6.33333C9.33333 6.18889 9.38611 6.02222 9.49167 5.83333C9.59722 5.64444 9.71111 5.46389 9.83333 5.29167C9.95555 5.11944 10.0694 4.97222 10.175 4.85L10.3333 4.66667L10.4917 4.85C10.5972 4.97222 10.7111 5.11944 10.8333 5.29167C10.9556 5.46389 11.0694 5.64444 11.175 5.83333C11.2806 6.02222 11.3333 6.18889 11.3333 6.33333C11.3333 6.61111 11.2361 6.84722 11.0417 7.04167C10.8472 7.23611 10.6111 7.33333 10.3333 7.33333ZM3.33333 12C2.41111 12 1.625 11.675 0.975 11.025C0.325 10.375 0 9.58889 0 8.66667C0 8.13333 0.116667 7.63611 0.35 7.175C0.583333 6.71389 0.911111 6.32222 1.33333 6V2C1.33333 1.44444 1.52778 0.972222 1.91667 0.583333C2.30556 0.194444 2.77778 0 3.33333 0C3.88889 0 4.36111 0.194444 4.75 0.583333C5.13889 0.972222 5.33333 1.44444 5.33333 2V6C5.75556 6.32222 6.08333 6.71389 6.31667 7.175C6.55 7.63611 6.66667 8.13333 6.66667 8.66667C6.66667 9.58889 6.34167 10.375 5.69167 11.025C5.04167 11.675 4.25556 12 3.33333 12ZM1.33333 8.66667H5.33333C5.33333 8.34445 5.26389 8.04445 5.125 7.76667C4.98611 7.48889 4.78889 7.25556 4.53333 7.06667L4 6.66667V2C4 1.81111 3.93611 1.65278 3.80833 1.525C3.68056 1.39722 3.52222 1.33333 3.33333 1.33333C3.14444 1.33333 2.98611 1.39722 2.85833 1.525C2.73056 1.65278 2.66667 1.81111 2.66667 2V6.66667L2.13333 7.06667C1.87778 7.25556 1.68056 7.48889 1.54167 7.76667C1.40278 8.04445 1.33333 8.34445 1.33333 8.66667Z" fill="#00174B"/>
</svg>
