<svg width="12" height="12" viewBox="0 0 12 12" fill="none" xmlns="http://www.w3.org/2000/svg">
<path d="M3 7C2.725 7 2.48958 6.90208 2.29375 6.70625C2.09792 6.51042 2 6.275 2 6C2 5.725 2.09792 5.48958 2.29375 5.29375C2.48958 5.09792 2.725 5 3 5C3.275 5 3.51042 5.09792 3.70625 5.29375C3.90208 5.48958 4 5.725 4 6C4 6.275 3.90208 6.51042 3.70625 6.70625C3.51042 6.90208 3.275 7 3 7ZM6 7C5.725 7 5.48958 6.90208 5.29375 6.70625C5.09792 6.51042 5 6.275 5 6C5 5.725 5.09792 5.48958 5.29375 5.29375C5.48958 5.09792 5.725 5 6 5C6.275 5 6.51042 5.09792 6.70625 5.29375C6.90208 5.48958 7 5.725 7 6C7 6.275 6.90208 6.51042 6.70625 6.70625C6.51042 6.90208 6.275 7 6 7ZM9 7C8.725 7 8.48958 6.90208 8.29375 6.70625C8.09792 6.51042 8 6.275 8 6C8 5.725 8.09792 5.48958 8.29375 5.29375C8.48958 5.09792 8.725 5 9 5C9.275 5 9.51042 5.09792 9.70625 5.29375C9.90208 5.48958 10 5.725 10 6C10 6.275 9.90208 6.51042 9.70625 6.70625C9.51042 6.90208 9.275 7 9 7Z" fill="#00174B"/>
</svg>
