<svg width="12" height="13" viewBox="0 0 12 13" fill="none" xmlns="http://www.w3.org/2000/svg">
<path d="M6 13.0002C5.28889 13.0002 4.65278 12.8168 4.09167 12.4502C3.53056 12.0835 3.07222 11.6002 2.71667 11.0002L1.13333 11.9002L0.466667 10.7502L2.18333 9.75016C2.15 9.62794 2.12222 9.50294 2.1 9.37516C2.07778 9.24739 2.05556 9.12239 2.03333 9.00016H0V7.66683H2.03333C2.05556 7.5335 2.07778 7.40294 2.1 7.27516C2.12222 7.14739 2.15 7.02239 2.18333 6.90016L0.466667 5.90016L1.13333 4.75016L2.7 5.66683C2.78889 5.51127 2.89167 5.3585 3.00833 5.2085C3.125 5.0585 3.24444 4.92239 3.36667 4.80016C3.34444 4.72239 3.33333 4.64461 3.33333 4.56683V4.3335C3.33333 4.06683 3.37222 3.81127 3.45 3.56683C3.52778 3.32239 3.63333 3.09461 3.76667 2.8835L2.66667 1.7835L3.6 0.833496L4.76667 1.96683C4.95556 1.86683 5.15278 1.79183 5.35833 1.74183C5.56389 1.69183 5.77778 1.66683 6 1.66683C6.22222 1.66683 6.43889 1.69461 6.65 1.75016C6.86111 1.80572 7.06111 1.8835 7.25 1.9835L8.4 0.833496L9.33333 1.7835L8.23333 2.8835C8.36667 3.09461 8.46945 3.32239 8.54167 3.56683C8.61389 3.81127 8.65 4.06683 8.65 4.3335V4.5585C8.65 4.63072 8.63889 4.70572 8.61667 4.7835C8.73889 4.90572 8.85833 5.04461 8.975 5.20016C9.09167 5.35572 9.19444 5.51127 9.28333 5.66683L10.8667 4.76683L11.5333 5.91683L9.8 6.90016C9.83333 7.02239 9.86389 7.14739 9.89167 7.27516C9.91945 7.40294 9.94444 7.5335 9.96667 7.66683H12V9.00016H9.96667C9.94444 9.1335 9.92222 9.26405 9.9 9.39183C9.87778 9.51961 9.85 9.64461 9.81667 9.76683L11.5333 10.7668L10.8667 11.9168L9.28333 11.0002C8.92778 11.6002 8.46945 12.0835 7.90833 12.4502C7.34722 12.8168 6.71111 13.0002 6 13.0002ZM4.73333 3.90016C4.92222 3.82239 5.125 3.76405 5.34167 3.72516C5.55833 3.68627 5.77778 3.66683 6 3.66683C6.22222 3.66683 6.43611 3.6835 6.64167 3.71683C6.84722 3.75016 7.04445 3.80572 7.23333 3.8835C7.14444 3.62794 6.98889 3.41683 6.76667 3.25016C6.54444 3.0835 6.28889 3.00016 6 3.00016C5.71111 3.00016 5.45 3.08627 5.21667 3.2585C4.98333 3.43072 4.82222 3.64461 4.73333 3.90016ZM6 11.6668C6.81111 11.6668 7.45833 11.3279 7.94167 10.6502C8.425 9.97239 8.66667 9.20016 8.66667 8.3335C8.66667 7.55572 8.44167 6.80572 7.99167 6.0835C7.54167 5.36127 6.87778 5.00016 6 5.00016C5.13333 5.00016 4.47222 5.3585 4.01667 6.07516C3.56111 6.79183 3.33333 7.54461 3.33333 8.3335C3.33333 9.20016 3.575 9.97239 4.05833 10.6502C4.54167 11.3279 5.18889 11.6668 6 11.6668ZM5.33333 10.3335V6.3335H6.66667V10.3335H5.33333Z" fill="#00174B"/>
</svg>
