<svg width="16" height="16" viewBox="0 0 16 16" fill="none" xmlns="http://www.w3.org/2000/svg">
<path d="M9.33333 15.4666V14.1333C10.6333 14.1333 11.7361 13.6805 12.6417 12.775C13.5472 11.8694 14 10.7666 14 9.46663H15.3333C15.3333 10.3 15.175 11.0805 14.8583 11.8083C14.5417 12.5361 14.1139 13.1694 13.575 13.7083C13.0361 14.2472 12.4028 14.675 11.675 14.9916C10.9472 15.3083 10.1667 15.4666 9.33333 15.4666ZM9.33333 12.8V11.4666C9.88889 11.4666 10.3611 11.2722 10.75 10.8833C11.1389 10.4944 11.3333 10.0222 11.3333 9.46663H12.6667C12.6667 10.3889 12.3417 11.175 11.6917 11.825C11.0417 12.475 10.2556 12.8 9.33333 12.8ZM3.7 15.05C3.53333 15.05 3.36667 15.0166 3.2 14.95C3.03333 14.8833 2.88333 14.7889 2.75 14.6666L0.383333 12.3C0.261111 12.1666 0.166667 12.0166 0.1 11.85C0.0333333 11.6833 0 11.5166 0 11.35C0 11.1722 0.0333333 11.0027 0.1 10.8416C0.166667 10.6805 0.261111 10.5389 0.383333 10.4166L2.5 8.29997C2.75556 8.04441 3.07222 7.91386 3.45 7.9083C3.82778 7.90274 4.14444 8.02774 4.4 8.2833L5.23333 9.11663L5.7 8.64997L4.86667 7.81663C4.61111 7.56108 4.48333 7.24997 4.48333 6.8833C4.48333 6.51663 4.61111 6.20552 4.86667 5.94997L5.81667 4.99997C6.07222 4.74441 6.38611 4.61663 6.75833 4.61663C7.13056 4.61663 7.44444 4.74441 7.7 4.99997L8.53333 5.8333L9 5.36663L8.16667 4.5333C7.91111 4.27774 7.78333 3.96386 7.78333 3.59163C7.78333 3.21941 7.91111 2.90552 8.16667 2.64997L10.2833 0.533301C10.4167 0.399967 10.5667 0.299967 10.7333 0.233301C10.9 0.166634 11.0667 0.133301 11.2333 0.133301C11.4 0.133301 11.5639 0.166634 11.725 0.233301C11.8861 0.299967 12.0333 0.399967 12.1667 0.533301L14.5333 2.89997C14.6667 3.02219 14.7639 3.16386 14.825 3.32497C14.8861 3.48608 14.9167 3.65552 14.9167 3.8333C14.9167 3.99997 14.8861 4.16663 14.825 4.3333C14.7639 4.49997 14.6667 4.64997 14.5333 4.7833L12.4167 6.89997C12.1611 7.15552 11.8472 7.2833 11.475 7.2833C11.1028 7.2833 10.7889 7.15552 10.5333 6.89997L9.7 6.06663L9.23333 6.5333L10.0667 7.36663C10.3222 7.62219 10.4472 7.93608 10.4417 8.3083C10.4361 8.68052 10.3056 8.99441 10.05 9.24997L9.11667 10.1833C8.86111 10.4389 8.54722 10.5666 8.175 10.5666C7.80278 10.5666 7.48889 10.4389 7.23333 10.1833L6.4 9.34997L5.93333 9.81663L6.76667 10.65C7.02222 10.9055 7.14722 11.2222 7.14167 11.6C7.13611 11.9777 7.00556 12.2944 6.75 12.55L4.63333 14.6666C4.51111 14.7889 4.36944 14.8833 4.20833 14.95C4.04722 15.0166 3.87778 15.05 3.7 15.05ZM3.7 13.7333L4.4 13.0333L2.03333 10.6666L1.33333 11.3666L3.7 13.7333ZM5.11667 12.3166L5.81667 11.6166L3.45 9.24997L2.75 9.94997L5.11667 12.3166ZM11.4833 5.94997L12.1833 5.24997L9.81667 2.8833L9.11667 3.5833L11.4833 5.94997ZM12.9 4.5333L13.6 3.8333L11.2333 1.46663L10.5333 2.16663L12.9 4.5333Z" fill="#00174B"/>
</svg>
