 <svg xmlns="http://www.w3.org/2000/svg" width="18" height="18" viewBox="0 0 18 18" fill="none">
 <path d="M3.675 12.8238C2.9625 12.0738 2.42188 11.2426 2.05313 10.3301C1.68438 9.41758 1.5 8.47383 1.5 7.49883C1.5 6.52383 1.68438 5.58008 2.05313 4.66758C2.42188 3.75508 2.9625 2.92383 3.675 2.17383L4.575 3.07383C3.975 3.67383 3.525 4.36445 3.225 5.1457C2.925 5.92695 2.775 6.71133 2.775 7.49883C2.775 8.28633 2.925 9.0707 3.225 9.85195C3.525 10.6332 3.975 11.3238 4.575 11.9238L3.675 12.8238ZM5.475 11.0238C4.9875 10.5363 4.61563 9.98633 4.35938 9.37383C4.10313 8.76133 3.975 8.13633 3.975 7.49883C3.975 6.86133 4.10313 6.23633 4.35938 5.62383C4.61563 5.01133 4.9875 4.46133 5.475 3.97383L6.375 4.87383C6 5.21133 5.71875 5.61133 5.53125 6.07383C5.34375 6.53633 5.25 7.01133 5.25 7.49883C5.25 7.94883 5.34375 8.40508 5.53125 8.86758C5.71875 9.33008 6 9.74883 6.375 10.1238L5.475 11.0238ZM5.25 16.4988L7.78125 8.90508C7.58125 8.73008 7.42188 8.52383 7.30313 8.28633C7.18438 8.04883 7.125 7.78633 7.125 7.49883C7.125 6.97383 7.30625 6.53008 7.66875 6.16758C8.03125 5.80508 8.475 5.62383 9 5.62383C9.525 5.62383 9.96875 5.80508 10.3313 6.16758C10.6938 6.53008 10.875 6.97383 10.875 7.49883C10.875 7.78633 10.8156 8.04883 10.6969 8.28633C10.5781 8.52383 10.4188 8.73008 10.2188 8.90508L12.75 16.4988H11.25L10.7625 14.9988H7.25625L6.75 16.4988H5.25ZM7.74375 13.4988H10.2563L9 9.74883L7.74375 13.4988ZM12.525 11.0238L11.625 10.1238C12 9.78633 12.2812 9.38633 12.4688 8.92383C12.6562 8.46133 12.75 7.98633 12.75 7.49883C12.75 7.04883 12.6562 6.59258 12.4688 6.13008C12.2812 5.66758 12 5.24883 11.625 4.87383L12.525 3.97383C13.0125 4.46133 13.375 5.01133 13.6125 5.62383C13.85 6.23633 13.9875 6.86133 14.025 7.49883C14.025 8.13633 13.8969 8.76133 13.6406 9.37383C13.3844 9.98633 13.0125 10.5363 12.525 11.0238ZM14.325 12.8238L13.425 11.9238C14.025 11.3238 14.475 10.6332 14.775 9.85195C15.075 9.0707 15.225 8.28633 15.225 7.49883C15.225 6.71133 15.075 5.92695 14.775 5.1457C14.475 4.36445 14.025 3.67383 13.425 3.07383L14.325 2.17383C15.0375 2.92383 15.5781 3.75508 15.9469 4.66758C16.3156 5.58008 16.5 6.52383 16.5 7.49883C16.5 8.47383 16.325 9.41758 15.975 10.3301C15.625 11.2426 15.075 12.0738 14.325 12.8238Z" fill="#00174B" />
 </svg>