<svg width="10" height="14" viewBox="0 0 10 14" fill="none" xmlns="http://www.w3.org/2000/svg">
<path d="M4.53448 13.3333C3.34041 13.3333 2.22191 13.1034 1.17899 12.6437C0 11.0345 1.17899 9.51724 1.17899 9.51724C1.42083 9.08812 1.77981 8.72414 2.25592 8.42529C2.73204 8.12644 3.27995 7.9387 3.89966 7.86207C3.85432 7.54023 3.79386 7.21839 3.71828 6.89655C3.64271 6.57471 3.55202 6.27586 3.44622 6C3.27995 6.13793 3.09857 6.24521 2.90208 6.32184C2.70559 6.39847 2.49398 6.43678 2.26726 6.43678C1.76847 6.43678 1.34148 6.2567 0.986278 5.89655C0.63108 5.5364 0.453481 5.10345 0.453481 4.5977V3.67816C0.453481 3.41762 0.411915 3.17241 0.328784 2.94253C0.245652 2.71264 0.136069 2.49808 3.56434e-05 2.29885C0.755777 2.28352 1.42839 2.35249 2.01787 2.50575C2.53177 2.64368 3.00033 2.86973 3.42354 3.18391C3.84676 3.49808 4.06592 3.96935 4.08104 4.5977C4.08104 4.73563 4.0697 4.86207 4.04703 4.97701C4.02436 5.09195 3.98279 5.21073 3.92233 5.33333C3.72584 5.18008 3.52935 5.04214 3.33285 4.91954C3.13636 4.79693 2.93231 4.68965 2.7207 4.5977C2.97766 4.79693 3.27239 5.10345 3.60492 5.51724C3.93745 5.93103 4.2473 6.42146 4.53448 6.98851C4.83678 6.23755 5.21465 5.49808 5.66809 4.77011C6.12154 4.04214 6.65056 3.37165 7.25515 2.75862C6.90751 3.00383 6.57498 3.26437 6.25757 3.54023C5.94016 3.81609 5.63031 4.10728 5.32801 4.41379C5.22221 4.24521 5.13907 4.05747 5.07862 3.85057C5.01816 3.64368 4.98793 3.43295 4.98793 3.21839C4.98793 2.57471 5.20709 2.03065 5.64542 1.58621C6.08375 1.14176 6.62033 0.91954 7.25515 0.91954H8.16204C8.50968 0.91954 8.79686 0.873563 9.02358 0.781609C9.2503 0.689655 9.43924 0.582375 9.59039 0.45977C9.75665 0.321839 9.88513 0.168582 9.97582 0C10.0363 1.02682 9.98337 1.94636 9.81711 2.75862C9.68108 3.44827 9.42412 4.08046 9.04625 4.65517C8.66838 5.22988 8.07135 5.51724 7.25515 5.51724C7.02843 5.51724 6.81304 5.48659 6.60899 5.42529C6.40494 5.36398 6.21978 5.27969 6.05352 5.17241C5.94772 5.4636 5.8268 5.85057 5.69077 6.33333C5.55473 6.81609 5.44893 7.33333 5.37335 7.88506C5.94772 7.99234 6.45406 8.19157 6.89239 8.48276C7.33072 8.77395 7.66325 9.11877 7.88997 9.51724C7.88997 9.51724 9.04625 10.7701 7.88997 12.6437C6.84705 13.1034 5.72855 13.3333 4.53448 13.3333Z" fill="#00174B"/>
</svg>
