<svg width="14" height="14" viewBox="0 0 14 14" fill="none" xmlns="http://www.w3.org/2000/svg">
        <path d="M1.66634 13.5007C1.29967 13.5007 0.985786 13.3701 0.724675 13.109C0.463563 12.8479 0.333008 12.534 0.333008 12.1673V4.83398C0.333008 4.46732 0.463563 4.15343 0.724675 3.89232C0.985786 3.63121 1.29967 3.50065 1.66634 3.50065H4.33301V2.16732C4.33301 1.80065 4.46356 1.48676 4.72467 1.22565C4.98579 0.96454 5.29967 0.833984 5.66634 0.833984H8.33301C8.69967 0.833984 9.01356 0.96454 9.27468 1.22565C9.53579 1.48676 9.66634 1.80065 9.66634 2.16732V3.50065H12.333C12.6997 3.50065 13.0136 3.63121 13.2747 3.89232C13.5358 4.15343 13.6663 4.46732 13.6663 4.83398V12.1673C13.6663 12.534 13.5358 12.8479 13.2747 13.109C13.0136 13.3701 12.6997 13.5007 12.333 13.5007H1.66634ZM5.66634 3.50065H8.33301V2.16732H5.66634V3.50065ZM12.333 9.50065H8.99967V10.834H4.99967V9.50065H1.66634V12.1673H12.333V9.50065ZM6.33301 9.50065H7.66634V8.16732H6.33301V9.50065ZM1.66634 8.16732H4.99967V6.83398H8.99967V8.16732H12.333V4.83398H1.66634V8.16732Z" fill="#003EA8" />
    </svg>