<svg width="16" height="16" viewBox="0 0 16 16" fill="none" xmlns="http://www.w3.org/2000/svg">
<mask id="mask0_2443_26595" style="mask-type:alpha" maskUnits="userSpaceOnUse" x="0" y="0" width="16" height="16">
<rect width="16" height="16" fill="#D9D9D9"/>
</mask>
<g mask="url(#mask0_2443_26595)">
<path d="M3.89967 11.3997C4.46634 10.9663 5.09967 10.6247 5.79967 10.3747C6.49967 10.1247 7.23301 9.99967 7.99967 9.99967C8.76634 9.99967 9.49967 10.1247 10.1997 10.3747C10.8997 10.6247 11.533 10.9663 12.0997 11.3997C12.4886 10.9441 12.7913 10.4275 13.008 9.84968C13.2247 9.2719 13.333 8.65523 13.333 7.99967C13.333 6.5219 12.8136 5.26356 11.7747 4.22467C10.7358 3.18579 9.47745 2.66634 7.99967 2.66634C6.5219 2.66634 5.26356 3.18579 4.22467 4.22467C3.18579 5.26356 2.66634 6.5219 2.66634 7.99967C2.66634 8.65523 2.77467 9.2719 2.99134 9.84968C3.20801 10.4275 3.51079 10.9441 3.89967 11.3997ZM7.99967 8.66634C7.34412 8.66634 6.79134 8.44134 6.34134 7.99134C5.89134 7.54134 5.66634 6.98856 5.66634 6.33301C5.66634 5.67745 5.89134 5.12467 6.34134 4.67467C6.79134 4.22467 7.34412 3.99967 7.99967 3.99967C8.65523 3.99967 9.20801 4.22467 9.65801 4.67467C10.108 5.12467 10.333 5.67745 10.333 6.33301C10.333 6.98856 10.108 7.54134 9.65801 7.99134C9.20801 8.44134 8.65523 8.66634 7.99967 8.66634ZM7.99967 14.6663C7.07745 14.6663 6.21079 14.4913 5.39967 14.1413C4.58856 13.7913 3.88301 13.3163 3.28301 12.7163C2.68301 12.1163 2.20801 11.4108 1.85801 10.5997C1.50801 9.78856 1.33301 8.9219 1.33301 7.99967C1.33301 7.07745 1.50801 6.21079 1.85801 5.39967C2.20801 4.58856 2.68301 3.88301 3.28301 3.28301C3.88301 2.68301 4.58856 2.20801 5.39967 1.85801C6.21079 1.50801 7.07745 1.33301 7.99967 1.33301C8.9219 1.33301 9.78856 1.50801 10.5997 1.85801C11.4108 2.20801 12.1163 2.68301 12.7163 3.28301C13.3163 3.88301 13.7913 4.58856 14.1413 5.39967C14.4913 6.21079 14.6663 7.07745 14.6663 7.99967C14.6663 8.9219 14.4913 9.78856 14.1413 10.5997C13.7913 11.4108 13.3163 12.1163 12.7163 12.7163C12.1163 13.3163 11.4108 13.7913 10.5997 14.1413C9.78856 14.4913 8.9219 14.6663 7.99967 14.6663Z" fill="#00174B"/>
</g>
</svg>
