<svg width="24" height="24" viewBox="0 0 24 24" fill="none" xmlns="http://www.w3.org/2000/svg">
<mask id="mask0_4358_27508" style="mask-type:alpha" maskUnits="userSpaceOnUse" x="0" y="0" width="24" height="24">
<rect width="24" height="24" fill="#D9D9D9"/>
</mask>
<g mask="url(#mask0_4358_27508)">
<path d="M4 17V19H20V17H18V11.9093C17.6796 11.9698 17.3463 12 17 12C15.6111 12 14.4306 11.5139 13.4583 10.5417C12.4861 9.56944 12 8.38889 12 7C12 5.61111 12.4861 4.43056 13.4583 3.45833C13.4716 3.44511 13.4848 3.43197 13.4981 3.41893C13.4803 3.03721 13.3351 2.71006 13.0625 2.4375C12.7708 2.14583 12.4167 2 12 2C11.5833 2 11.2292 2.14583 10.9375 2.4375C10.6458 2.72917 10.5 3.08333 10.5 3.5V4.2C9.16667 4.53333 8.08333 5.2375 7.25 6.3125C6.41667 7.3875 6 8.61667 6 10V17H4Z" fill="white"/>
<path d="M10.5875 21.4125C10.9792 21.8042 11.45 22 12 22C12.55 22 13.0208 21.8042 13.4125 21.4125C13.8042 21.0208 14 20.55 14 20H10C10 20.55 10.1958 21.0208 10.5875 21.4125Z" fill="white"/>
<path d="M17 10C16.1667 10 15.4583 9.70833 14.875 9.125C14.2917 8.54167 14 7.83333 14 7C14 6.16667 14.2917 5.45833 14.875 4.875C15.4583 4.29167 16.1667 4 17 4C17.8333 4 18.5417 4.29167 19.125 4.875C19.7083 5.45833 20 6.16667 20 7C20 7.83333 19.7083 8.54167 19.125 9.125C18.5417 9.70833 17.8333 10 17 10Z" fill="#BA1A1A"/>
</g>
</svg>
