<svg width="16" height="17" viewBox="0 0 16 17" fill="none" xmlns="http://www.w3.org/2000/svg">
<g id="pix">
<path id="path2376" d="M12.517 12.3804C11.9124 12.3804 11.3437 12.1431 10.9162 11.7125L8.60473 9.38305C8.44243 9.21908 8.15959 9.21957 7.99736 9.38305L5.67746 11.721C5.2499 12.1517 4.68122 12.3889 4.07661 12.3889H3.62109L6.54864 15.3391C7.46289 16.2604 8.94527 16.2604 9.85958 15.3391L12.7954 12.3804H12.517Z" fill="#757680"/>
<path id="path2380" d="M4.07648 4.14113C4.68109 4.14113 5.24977 4.37837 5.67733 4.80904L7.99723 7.14732C8.16431 7.31577 8.43711 7.3164 8.6046 7.14713L10.9161 4.81756C11.3436 4.3869 11.9123 4.14966 12.5169 4.14966H12.7953L9.85951 1.19105C8.94513 0.269649 7.46276 0.269649 6.54851 1.19105L3.62109 4.14114L4.07648 4.14113Z" fill="#757680"/>
<path id="path2384" d="M15.2252 6.59677L13.4511 4.80888C13.412 4.82464 13.3697 4.83448 13.325 4.83448H12.5184C12.1013 4.83448 11.6931 5.00495 11.3984 5.30213L9.08704 7.63148C8.87073 7.84947 8.5865 7.95853 8.30255 7.95853C8.01831 7.95853 7.73429 7.84947 7.51806 7.63169L5.19794 5.29361C4.90325 4.99637 4.49501 4.82597 4.07797 4.82597H3.08611C3.0438 4.82597 3.00427 4.81592 2.96695 4.80176L1.18574 6.59677C0.27142 7.51817 0.27142 9.01195 1.18574 9.93335L2.96688 11.7283C3.00427 11.7141 3.0438 11.7041 3.08611 11.7041H4.07797C4.49501 11.7041 4.90325 11.5337 5.19794 11.2365L7.51784 8.89863C7.93716 8.47641 8.66813 8.47627 9.08704 8.89883L11.3984 11.228C11.6931 11.5252 12.1013 11.6956 12.5184 11.6956H13.325C13.3697 11.6956 13.412 11.7055 13.4511 11.7212L15.2252 9.93334C16.1395 9.01194 16.1395 7.51817 15.2252 6.59677Z" fill="#757680"/>
</g>
</svg>
