<svg id="Grupo_40" data-name="Grupo 40" xmlns="http://www.w3.org/2000/svg" width="39.677" height="39.677" viewBox="0 0 39.677 39.677">
  <g id="Grupo_39" data-name="Grupo 39">
    <path id="Caminho_113" data-name="Caminho 113" d="M34.362,23.269l3.646-1.563-.5-1.176-3.788,1.624a8.377,8.377,0,0,0-2.3-2.238l1.768-2.948-1.1-.659-1.8,2.991a8.241,8.241,0,0,0-3.415-.742h-.193l2.672-4.809-1.119-.621-2.971,5.349a6.378,6.378,0,0,1-3.414-1.669l1.637-1.637-.9-.9L21.012,15.84a6.355,6.355,0,0,1-1.174-3.68c0-.033,0-.065-.005-.1l3.31-.552-.21-1.263-3.225.538a7.636,7.636,0,0,0-.783-2.254l4.4-2.2-.573-1.145L18.216,7.455a7.743,7.743,0,0,0-1.232-1.263L19.059,3.6l-1-.8L15.921,5.471a7.611,7.611,0,0,0-1.757-.717l.542-2.709-1.255-.251-.545,2.723c-.246-.024-.5-.038-.748-.038a7.632,7.632,0,0,0-1.92.253V0H8.959V5.187a7.716,7.716,0,0,0-1,.55L4.972,2.15l-.984.82L6.954,6.529A7.706,7.706,0,0,0,5.941,7.671L4.195,6.507l-.71,1.065,1.794,1.2A7.572,7.572,0,0,0,4.6,10.879H0v1.28H4.48v.64c0,.466.019.927.047,1.386l-2.733.547.252,1.255,2.6-.52a22.228,22.228,0,0,0,.47,2.611L1.105,19.224l.351,1.231L5.45,19.314c.166.545.355,1.078.561,1.605L1.635,23.107l.573,1.145,4.3-2.152a22.23,22.23,0,0,0,1.026,1.973L4.126,26.347l.71,1.065L8.213,25.16a22.557,22.557,0,0,0,1.464,1.965L7.966,28.267l.71,1.065,1.859-1.24c.449.479.916.941,1.405,1.379l-2.831,3.4.984.82L12.919,30.3q.78.624,1.613,1.179l-2.915,4.663,1.085.679,2.917-4.667A22.408,22.408,0,0,0,17.876,33.3l-1.2,3.613,1.213.405,1.178-3.532a22.3,22.3,0,0,0,2.553.779l-.485,2.425,1.255.252.483-2.412q1.03.187,2.09.279v4.565h1.28v-4.5c.214.006.426.016.641.016a8.3,8.3,0,0,0,2.317-.335l1.59,3.181,1.145-.573L30.4,34.406a8.315,8.315,0,0,0,1.465-.883l1.544,2.058,1.024-.767-1.6-2.134a8.4,8.4,0,0,0,1-1.249l3.57,2.379.71-1.065L34.451,30.3a8.229,8.229,0,0,0,.638-2.146h4.588v-1.28H35.2A8.259,8.259,0,0,0,34.362,23.269ZM26.878,33.918A21.143,21.143,0,0,1,5.76,12.8v-.64a6.4,6.4,0,1,1,12.8,0,7.688,7.688,0,0,0,7.679,7.679h.64a7.04,7.04,0,0,1,0,14.079Z" fill="#1455be"/>
    <path id="Caminho_114" data-name="Caminho 114" d="M115.84,103.679A3.84,3.84,0,1,0,112,99.84,3.844,3.844,0,0,0,115.84,103.679Zm0-6.4a2.56,2.56,0,1,1-2.56,2.56A2.562,2.562,0,0,1,115.84,97.28Z" transform="translate(-103.041 -88.321)" fill="#1455be"/>
    <path id="Caminho_115" data-name="Caminho 115" d="M121.92,232a1.92,1.92,0,1,0,1.92,1.92A1.922,1.922,0,0,0,121.92,232Zm0,2.56a.64.64,0,1,1,.64-.64A.64.64,0,0,1,121.92,234.56Z" transform="translate(-110.401 -213.441)" fill="#1455be"/>
    <path id="Caminho_116" data-name="Caminho 116" d="M194.56,312a2.56,2.56,0,1,0,2.56,2.56A2.562,2.562,0,0,0,194.56,312Zm0,3.84a1.28,1.28,0,1,1,1.28-1.28A1.281,1.281,0,0,1,194.56,315.84Z" transform="translate(-176.641 -287.042)" fill="#1455be"/>
    <path id="Caminho_117" data-name="Caminho 117" d="M249.92,248a1.92,1.92,0,1,0,1.92,1.92A1.922,1.922,0,0,0,249.92,248Zm0,2.56a.64.64,0,1,1,.64-.64A.64.64,0,0,1,249.92,250.56Z" transform="translate(-228.161 -228.161)" fill="#1455be"/>
    <path id="Caminho_118" data-name="Caminho 118" d="M322.56,304a2.56,2.56,0,1,0,2.56,2.56A2.562,2.562,0,0,0,322.56,304Zm0,3.84a1.28,1.28,0,1,1,1.28-1.28A1.281,1.281,0,0,1,322.56,307.84Z" transform="translate(-294.402 -279.682)" fill="#1455be"/>
    <path id="Caminho_119" data-name="Caminho 119" d="M338.378,7.679V7.528a6.25,6.25,0,0,0-.139-1.3l1.065-.532-.573-1.145-.9.448a6.27,6.27,0,0,0-1.106-1.68l2.032-1.524L337.994.768l-2.24,1.68a6.217,6.217,0,0,0-1.091-.627l.448-.9L333.966.353l-.532,1.065a6.3,6.3,0,0,0-1.3-.138h-.152V0H330.7V1.345a3.162,3.162,0,0,0-.977.39l-.37-.74-1.145.573.532,1.063a3.176,3.176,0,0,0-.488,1.059l-1.876-.47-.31,1.242,2.127.532a3.141,3.141,0,0,0,.358,1.023l-1.252.417.405,1.213,1.761-.587a3.19,3.19,0,0,0,.811.424L329.526,8.6l1.065.71,1.038-1.556a.633.633,0,0,1,.349.561,3.187,3.187,0,0,0,.239,1.2l-1.234.823.71,1.065,1.233-.822a3.212,3.212,0,0,0,.971.659v2.831h1.28v-2.56a3.162,3.162,0,0,0,1.347-.308l1.4,1.4.9-.9-1.271-1.271a3.179,3.179,0,0,0,.754-1.476h1.345V7.679Zm-1.28.64a1.92,1.92,0,1,1-3.84,0,1.922,1.922,0,0,0-1.92-1.92,1.92,1.92,0,0,1,0-3.84h.792A4.973,4.973,0,0,1,337.1,7.528Z" transform="translate(-299.981)" fill="#1455be"/>
  </g>
</svg>
