<?xml version="1.0" encoding="utf-8"?>
<!-- Generator: Adobe Illustrator 22.1.0, SVG Export Plug-In . SVG Version: 6.00 Build 0)  -->
<svg version="1.1" id="Layer_1" xmlns="http://www.w3.org/2000/svg" xmlns:xlink="http://www.w3.org/1999/xlink" x="0px" y="0px"
	 viewBox="0 0 24 24" style="enable-background:new 0 0 24 24;" xml:space="preserve">
<style type="text/css">
	.st0{fill:none;}
	.st1{fill:#1455BE;}
</style>
<g>
	<rect class="st0" width="24" height="24"/>
	<path class="st1" d="M19.9,8c-2.2,0.2-4.3,0.9-6.1,2V6.5c0-0.2-0.1-0.4-0.2-0.5l-3.2-2.9C10.3,3.1,10.1,3,10,3S9.6,3.1,9.5,3.2
		L6.3,6C6.2,6.1,6.1,6.3,6.1,6.5v2.9C5.5,9.2,4.8,9.1,4.1,9C3.5,9,3,9.5,3,10v3.6V19c0,1.1,0.9,2,2,2h6h4h1h3c1.1,0,2-0.9,2-2v-6.4
		V9C21,8.5,20.5,8,19.9,8z M8.7,8.8h2.5v3.1c-0.8-0.6-1.6-1.1-2.5-1.6V8.8z M5,19v-3c1.5,0.5,2.9,1.7,3.5,3H5z M10.7,19
		c-0.8-2.5-3.1-4.4-5.7-5.1v-2.7c4.2,0.8,7.8,4,8.7,7.8H10.7z M19,19h-3.2c-0.1-0.5-0.2-1.1-0.4-1.6c0.9-1.1,2.2-2,3.6-2.5V19z
		 M19,12.9c-1.7,0.4-3.3,1.3-4.6,2.6l0,0c-0.5-0.8-1.1-1.6-1.7-2.2l0,0c1.7-1.5,3.9-2.6,6.3-3V12.9z"/>
</g>
</svg>
