<svg xmlns="http://www.w3.org/2000/svg" width="24" height="24" viewBox="0 0 24 24" fill="none">
  <path d="M11.0011 20C10.7177 20 10.4802 19.9042 10.2886 19.7125C10.0969 19.5208 10.0011 19.2833 10.0011 19V13L4.20106 5.6C3.95106 5.26667 3.91356 4.91667 4.08856 4.55C4.26356 4.18333 4.56772 4 5.00106 4H19.0011C19.4344 4 19.7386 4.18333 19.9136 4.55C20.0886 4.91667 20.0511 5.26667 19.8011 5.6L14.0011 13V19C14.0011 19.2833 13.9052 19.5208 13.7136 19.7125C13.5219 19.9042 13.2844 20 13.0011 20H11.0011Z" fill="#757680"/>
</svg>