<svg width="24" height="24" viewBox="0 0 24 24" fill="none" xmlns="http://www.w3.org/2000/svg">
<mask id="mask0_4648_29370" style="mask-type:alpha" maskUnits="userSpaceOnUse" x="0" y="0" width="24" height="24">
<rect width="24" height="24" fill="#D9D9D9"/>
</mask>
<g mask="url(#mask0_4648_29370)">
<path d="M6 20.0008C4.61667 20.0008 3.4375 19.5133 2.4625 18.5383C1.4875 17.5633 1 16.3841 1 15.0008C1 13.6174 1.4875 12.4383 2.4625 11.4633C3.4375 10.4883 4.61667 10.0008 6 10.0008C7.38333 10.0008 8.5625 10.4883 9.5375 11.4633C10.5125 12.4383 11 13.6174 11 15.0008C11 16.3841 10.5125 17.5633 9.5375 18.5383C8.5625 19.5133 7.38333 20.0008 6 20.0008ZM6 16.5008C5.58333 16.5008 5.22917 16.3549 4.9375 16.0633C4.64583 15.7716 4.5 15.4174 4.5 15.0008C4.5 14.5841 4.64583 14.2299 4.9375 13.9383C5.22917 13.6466 5.58333 13.5008 6 13.5008C6.41667 13.5008 6.77083 13.6466 7.0625 13.9383C7.35417 14.2299 7.5 14.5841 7.5 15.0008C7.5 15.4174 7.35417 15.7716 7.0625 16.0633C6.77083 16.3549 6.41667 16.5008 6 16.5008ZM19.5 20.0008C18.5333 20.0008 17.7083 19.6591 17.025 18.9758C16.3417 18.2924 16 17.4674 16 16.5008C16 15.5341 16.3417 14.7091 17.025 14.0258C17.7083 13.3424 18.5333 13.0008 19.5 13.0008C20.4667 13.0008 21.2917 13.3424 21.975 14.0258C22.6583 14.7091 23 15.5341 23 16.5008C23 17.4674 22.6583 18.2924 21.975 18.9758C21.2917 19.6591 20.4667 20.0008 19.5 20.0008ZM4 9.00078C3.71667 9.00078 3.47917 8.90495 3.2875 8.71328C3.09583 8.52161 3 8.28411 3 8.00078C3 7.71745 3.09583 7.47995 3.2875 7.28828C3.47917 7.09661 3.71667 7.00078 4 7.00078H7C7.55 7.00078 8.02083 7.19661 8.4125 7.58828C8.80417 7.97995 9 8.45078 9 9.00078H4ZM6 18.0008C6.83333 18.0008 7.54167 17.7091 8.125 17.1258C8.70833 16.5424 9 15.8341 9 15.0008C9 14.1674 8.70833 13.4591 8.125 12.8758C7.54167 12.2924 6.83333 12.0008 6 12.0008C5.16667 12.0008 4.45833 12.2924 3.875 12.8758C3.29167 13.4591 3 14.1674 3 15.0008C3 15.8341 3.29167 16.5424 3.875 17.1258C4.45833 17.7091 5.16667 18.0008 6 18.0008ZM19.5 18.0008C19.9167 18.0008 20.2708 17.8549 20.5625 17.5633C20.8542 17.2716 21 16.9174 21 16.5008C21 16.0841 20.8542 15.7299 20.5625 15.4383C20.2708 15.1466 19.9167 15.0008 19.5 15.0008C19.0833 15.0008 18.7292 15.1466 18.4375 15.4383C18.1458 15.7299 18 16.0841 18 16.5008C18 16.9174 18.1458 17.2716 18.4375 17.5633C18.7292 17.8549 19.0833 18.0008 19.5 18.0008ZM11.9 16.0008H15.05C15.2167 14.8008 15.7375 13.8424 16.6125 13.1258C17.4875 12.4091 18.475 12.0508 19.575 12.0508C19.9917 12.0508 20.4042 12.1091 20.8125 12.2258C21.2208 12.3424 21.6167 12.5174 22 12.7508V8.00078C22 7.45078 21.8042 6.97995 21.4125 6.58828C21.0208 6.19661 20.55 6.00078 20 6.00078H13.7L12.65 4.90078L14.05 3.50078L13.35 2.80078L9.8 6.35078L10.55 7.05078L11.95 5.65078L13 6.70078V9.00078C13 9.55078 12.8042 10.0216 12.4125 10.4133C12.0208 10.8049 11.55 11.0008 11 11.0008H10.45C10.95 11.5508 11.3292 12.1674 11.5875 12.8508C11.8458 13.5341 11.975 14.2508 11.975 15.0008C11.975 15.1674 11.9708 15.3341 11.9625 15.5008C11.9542 15.6674 11.9333 15.8341 11.9 16.0008Z" fill="#00174B"/>
</g>
</svg>
