<svg width="14" height="14" viewBox="0 0 14 14" fill="none" xmlns="http://www.w3.org/2000/svg">
<path d="M6.33301 10.3333H7.66634V6.33325H6.33301V10.3333ZM6.99967 4.99992C7.18856 4.99992 7.3469 4.93603 7.47467 4.80825C7.60245 4.68047 7.66634 4.52214 7.66634 4.33325C7.66634 4.14436 7.60245 3.98603 7.47467 3.85825C7.3469 3.73047 7.18856 3.66659 6.99967 3.66659C6.81079 3.66659 6.65245 3.73047 6.52467 3.85825C6.3969 3.98603 6.33301 4.14436 6.33301 4.33325C6.33301 4.52214 6.3969 4.68047 6.52467 4.80825C6.65245 4.93603 6.81079 4.99992 6.99967 4.99992ZM6.99967 13.6666C6.07745 13.6666 5.21079 13.4916 4.39967 13.1416C3.58856 12.7916 2.88301 12.3166 2.28301 11.7166C1.68301 11.1166 1.20801 10.411 0.858008 9.59992C0.508008 8.78881 0.333008 7.92214 0.333008 6.99992C0.333008 6.0777 0.508008 5.21103 0.858008 4.39992C1.20801 3.58881 1.68301 2.88325 2.28301 2.28325C2.88301 1.68325 3.58856 1.20825 4.39967 0.858252C5.21079 0.508252 6.07745 0.333252 6.99967 0.333252C7.9219 0.333252 8.78856 0.508252 9.59968 0.858252C10.4108 1.20825 11.1163 1.68325 11.7163 2.28325C12.3163 2.88325 12.7913 3.58881 13.1413 4.39992C13.4913 5.21103 13.6663 6.0777 13.6663 6.99992C13.6663 7.92214 13.4913 8.78881 13.1413 9.59992C12.7913 10.411 12.3163 11.1166 11.7163 11.7166C11.1163 12.3166 10.4108 12.7916 9.59968 13.1416C8.78856 13.4916 7.9219 13.6666 6.99967 13.6666Z" fill="#0053DB"/>
</svg>
