<?xml version="1.0" encoding="UTF-8"?>
<svg xmlns="http://www.w3.org/2000/svg" xmlns:xlink="http://www.w3.org/1999/xlink" width="45px" height="45px" viewBox="0 0 45 45" version="1.1">
<g id="surface1">
<path style=" stroke:none;fill-rule:nonzero;fill:rgb(0%,0%,0%);fill-opacity:0.541176;" d="M 36.0625 43.5 L 32.195312 27.949219 C 32.1875 27.914062 32.175781 27.878906 32.167969 27.847656 L 25.46875 0.898438 C 25.332031 0.371094 24.859375 0 24.320312 0 L 20.648438 0 C 20.101562 0 19.632812 0.371094 19.503906 0.898438 L 8.910156 43.5 C 8.820312 43.851562 8.894531 44.226562 9.121094 44.515625 C 9.34375 44.796875 9.6875 44.964844 10.054688 44.964844 L 15.449219 44.964844 C 15.757812 44.964844 16.058594 44.835938 16.277344 44.617188 L 22.480469 38.421875 L 28.6875 44.617188 C 28.902344 44.835938 29.210938 44.964844 29.523438 44.964844 L 34.917969 44.964844 C 35.277344 44.964844 35.621094 44.796875 35.847656 44.515625 C 36.070312 44.226562 36.148438 43.851562 36.0625 43.5 Z M 21.570312 2.359375 L 23.390625 2.359375 L 25.804688 12.046875 L 19.167969 12.046875 Z M 14.953125 42.601562 L 11.566406 42.601562 L 14.578125 30.503906 L 20.796875 36.738281 Z M 22.464844 35.0625 L 15.238281 27.828125 L 18.578125 14.40625 L 26.386719 14.40625 L 29.71875 27.804688 Z M 30.007812 42.601562 L 24.144531 36.730469 L 30.390625 30.480469 L 33.40625 42.601562 Z M 30.007812 42.601562 "/>
</g>
</svg>
