<?xml version="1.0" standalone="no"?>
<!DOCTYPE svg PUBLIC "-//W3C//DTD SVG 20010904//EN"
 "http://www.w3.org/TR/2001/REC-SVG-20010904/DTD/svg10.dtd">
<svg version="1.0" xmlns="http://www.w3.org/2000/svg"
 width="512.000000pt" height="512.000000pt" viewBox="0 0 512.000000 512.000000"
 preserveAspectRatio="xMidYMid meet">

<g transform="translate(0.000000,512.000000) scale(0.100000,-0.100000)"
fill="#000000" stroke="none">
<path d="M930 2570 c0 -7 153 -10 440 -10 287 0 440 3 440 10 0 7 -153 10
-440 10 -287 0 -440 -3 -440 -10z"/>
<path d="M2410 2570 c0 -6 57 -10 150 -10 93 0 150 4 150 10 0 6 -57 10 -150
10 -93 0 -150 -4 -150 -10z"/>
<path d="M3310 2570 c0 -7 153 -10 440 -10 287 0 440 3 440 10 0 7 -153 10
-440 10 -287 0 -440 -3 -440 -10z"/>
<path d="M950 2535 c0 -16 77 -146 503 -847 255 -420 580 -954 722 -1188 141
-234 269 -437 283 -453 34 -36 90 -51 140 -38 21 6 50 23 64 38 14 16 173 271
353 568 181 297 505 832 722 1188 362 596 433 717 433 732 0 3 -192 5 -427 5
l-428 -1 -18 -39 c-10 -21 -33 -48 -51 -60 -31 -19 -49 -20 -285 -20 l-251 0
0 60 0 60 -150 0 -150 0 0 -60 0 -60 -251 0 c-236 0 -254 1 -285 20 -18 12
-41 39 -51 60 l-18 39 -427 1 c-236 0 -428 -2 -428 -5z"/>
</g>
</svg>
