<?xml version="1.0" encoding="UTF-8"?>
<svg xmlns="http://www.w3.org/2000/svg" xmlns:xlink="http://www.w3.org/1999/xlink" width="48px" height="48px" viewBox="0 0 48 48" version="1.1">
<g id="surface1">
<path style=" stroke:none;fill-rule:nonzero;fill:rgb(0%,36.470588%,95.294118%);fill-opacity:1;" d="M 8.617188 0.09375 C 21.769531 0.09375 34.921875 0.09375 48.09375 0.09375 C 48.09375 13.347656 48.09375 26.597656 48.058594 39.90625 C 47.984375 40.117188 47.941406 40.273438 47.902344 40.425781 C 46.914062 44.285156 43.9375 47.21875 40.03125 47.914062 C 39.960938 47.925781 39.90625 48.03125 39.84375 48.09375 C 26.601562 48.09375 13.355469 48.09375 0.09375 48.09375 C 0.09375 34.871094 0.09375 21.648438 0.125 8.371094 C 0.277344 7.886719 0.378906 7.453125 0.519531 7.03125 C 1.105469 5.234375 2.058594 3.683594 3.519531 2.449219 C 4.460938 1.652344 5.480469 1.011719 6.652344 0.625 C 7.292969 0.410156 7.960938 0.269531 8.617188 0.09375 M 15.519531 8.15625 C 14.425781 8.15625 13.328125 8.144531 12.234375 8.164062 C 12.046875 8.167969 11.816406 8.261719 11.679688 8.394531 C 10.597656 9.449219 9.542969 10.53125 8.460938 11.589844 C 8.234375 11.8125 8.148438 12.035156 8.148438 12.351562 C 8.15625 18.710938 8.15625 25.070312 8.15625 31.429688 C 8.15625 31.597656 8.15625 31.761719 8.15625 31.945312 C 9.375 31.945312 10.554688 31.945312 11.777344 31.945312 C 11.777344 29.753906 11.777344 27.585938 11.777344 25.390625 C 11.988281 25.390625 12.15625 25.390625 12.324219 25.390625 C 15.59375 25.390625 18.867188 25.402344 22.140625 25.382812 C 23.652344 25.375 24.949219 24.753906 25.984375 23.703125 C 27.082031 22.589844 27.625 21.195312 27.617188 19.605469 C 27.605469 17.8125 27.617188 16.023438 27.609375 14.230469 C 27.609375 13.851562 27.570312 13.472656 27.519531 13.097656 C 27.289062 11.414062 26.460938 10.113281 25.0625 9.148438 C 24.035156 8.441406 22.882812 8.1875 21.679688 8.164062 C 19.660156 8.128906 17.636719 8.15625 15.519531 8.15625 M 31.273438 25.484375 C 32.402344 25.484375 33.527344 25.476562 34.65625 25.484375 C 35.238281 25.492188 35.695312 25.757812 36.046875 26.21875 C 36.648438 27.003906 36.496094 27.90625 36.5 28.820312 C 36.285156 28.820312 36.117188 28.820312 35.949219 28.820312 C 32.800781 28.820312 29.648438 28.804688 26.5 28.824219 C 25.453125 28.832031 24.445312 29.03125 23.492188 29.53125 C 21.160156 30.757812 20.03125 33.417969 20.710938 35.820312 C 21.472656 38.511719 23.550781 39.96875 26.195312 40.015625 C 29.46875 40.078125 32.742188 40.035156 36.015625 40.019531 C 36.214844 40.019531 36.464844 39.917969 36.605469 39.777344 C 37.667969 38.746094 38.703125 37.683594 39.765625 36.648438 C 39.972656 36.441406 40.035156 36.242188 40.035156 35.960938 C 40.027344 33.183594 40.035156 30.402344 40.027344 27.621094 C 40.027344 27.289062 39.984375 26.957031 39.9375 26.625 C 39.539062 23.953125 37.164062 21.898438 34.351562 21.871094 C 32.546875 21.855469 30.738281 21.867188 28.929688 21.867188 C 28.78125 21.867188 28.632812 21.867188 28.476562 21.867188 C 28.476562 23.09375 28.476562 24.273438 28.476562 25.484375 C 29.394531 25.484375 30.289062 25.484375 31.273438 25.484375 Z M 31.273438 25.484375 "/>
<path style=" stroke:none;fill-rule:nonzero;fill:rgb(100%,100%,100%);fill-opacity:1;" d="M 39.890625 48.09375 C 39.90625 48.03125 39.960938 47.925781 40.03125 47.914062 C 43.9375 47.21875 46.914062 44.285156 47.902344 40.425781 C 47.941406 40.273438 47.984375 40.117188 48.058594 39.949219 C 48.09375 42.648438 48.09375 45.359375 48.09375 48.09375 C 45.371094 48.09375 42.652344 48.09375 39.890625 48.09375 Z M 39.890625 48.09375 "/>
<path style=" stroke:none;fill-rule:nonzero;fill:rgb(100%,100%,100%);fill-opacity:1;" d="M 8.574219 0.09375 C 7.960938 0.269531 7.292969 0.410156 6.652344 0.625 C 5.480469 1.011719 4.460938 1.652344 3.519531 2.449219 C 2.058594 3.683594 1.105469 5.234375 0.519531 7.03125 C 0.378906 7.453125 0.277344 7.886719 0.125 8.328125 C 0.09375 5.597656 0.09375 2.855469 0.09375 0.09375 C 2.90625 0.09375 5.71875 0.09375 8.574219 0.09375 Z M 8.574219 0.09375 "/>
<path style=" stroke:none;fill-rule:nonzero;fill:rgb(100%,100%,100%);fill-opacity:1;" d="M 15.566406 8.15625 C 17.636719 8.15625 19.660156 8.128906 21.679688 8.164062 C 22.882812 8.1875 24.035156 8.441406 25.0625 9.148438 C 26.460938 10.113281 27.289062 11.414062 27.519531 13.097656 C 27.570312 13.472656 27.609375 13.851562 27.609375 14.230469 C 27.617188 16.023438 27.605469 17.8125 27.617188 19.605469 C 27.625 21.195312 27.082031 22.589844 25.984375 23.703125 C 24.949219 24.753906 23.652344 25.375 22.140625 25.382812 C 18.867188 25.402344 15.59375 25.390625 12.324219 25.390625 C 12.15625 25.390625 11.988281 25.390625 11.777344 25.390625 C 11.777344 27.585938 11.777344 29.753906 11.777344 31.945312 C 10.554688 31.945312 9.375 31.945312 8.15625 31.945312 C 8.15625 31.761719 8.15625 31.597656 8.15625 31.429688 C 8.15625 25.070312 8.15625 18.710938 8.148438 12.351562 C 8.148438 12.035156 8.234375 11.8125 8.460938 11.589844 C 9.542969 10.53125 10.597656 9.449219 11.679688 8.394531 C 11.816406 8.261719 12.046875 8.167969 12.234375 8.164062 C 13.328125 8.144531 14.425781 8.15625 15.566406 8.15625 M 13.484375 21.867188 C 15.90625 21.867188 18.332031 21.871094 20.753906 21.863281 C 21.164062 21.863281 21.578125 21.839844 21.980469 21.769531 C 23.042969 21.582031 24.003906 20.566406 24 19.464844 C 23.996094 17.78125 23.953125 16.097656 24.015625 14.417969 C 24.070312 12.910156 22.792969 11.734375 21.328125 11.753906 C 18.316406 11.796875 15.304688 11.769531 12.292969 11.769531 C 12.128906 11.769531 11.964844 11.769531 11.796875 11.769531 C 11.796875 15.160156 11.796875 18.5 11.796875 21.867188 C 12.34375 21.867188 12.867188 21.867188 13.484375 21.867188 Z M 13.484375 21.867188 "/>
<path style=" stroke:none;fill-rule:nonzero;fill:rgb(100%,100%,100%);fill-opacity:1;" d="M 31.226562 25.484375 C 30.289062 25.484375 29.394531 25.484375 28.476562 25.484375 C 28.476562 24.273438 28.476562 23.09375 28.476562 21.867188 C 28.632812 21.867188 28.78125 21.867188 28.929688 21.867188 C 30.738281 21.867188 32.546875 21.855469 34.351562 21.871094 C 37.164062 21.898438 39.539062 23.953125 39.9375 26.625 C 39.984375 26.957031 40.027344 27.289062 40.027344 27.621094 C 40.035156 30.402344 40.027344 33.183594 40.035156 35.960938 C 40.035156 36.242188 39.972656 36.441406 39.765625 36.648438 C 38.703125 37.683594 37.667969 38.746094 36.605469 39.777344 C 36.464844 39.917969 36.214844 40.019531 36.015625 40.019531 C 32.742188 40.035156 29.46875 40.078125 26.195312 40.015625 C 23.550781 39.96875 21.472656 38.511719 20.710938 35.820312 C 20.03125 33.417969 21.160156 30.757812 23.492188 29.53125 C 24.445312 29.03125 25.453125 28.832031 26.5 28.824219 C 29.648438 28.804688 32.800781 28.820312 35.949219 28.820312 C 36.117188 28.820312 36.285156 28.820312 36.5 28.820312 C 36.496094 27.90625 36.648438 27.003906 36.046875 26.21875 C 35.695312 25.757812 35.238281 25.492188 34.65625 25.484375 C 33.527344 25.476562 32.402344 25.484375 31.226562 25.484375 M 29.144531 32.433594 C 28.109375 32.433594 27.074219 32.433594 26.042969 32.433594 C 24.945312 32.433594 24.132812 33.296875 24.082031 34.398438 C 24.027344 35.472656 25.054688 36.433594 26.035156 36.425781 C 29.367188 36.402344 32.699219 36.417969 36.035156 36.417969 C 36.183594 36.417969 36.332031 36.402344 36.480469 36.398438 C 36.480469 35.0625 36.480469 33.757812 36.480469 32.433594 C 34.046875 32.433594 31.640625 32.433594 29.144531 32.433594 Z M 29.144531 32.433594 "/>
<path style=" stroke:none;fill-rule:nonzero;fill:rgb(0%,36.470588%,95.294118%);fill-opacity:1;" d="M 13.4375 21.867188 C 12.867188 21.867188 12.34375 21.867188 11.796875 21.867188 C 11.796875 18.5 11.796875 15.160156 11.796875 11.769531 C 11.964844 11.769531 12.128906 11.769531 12.292969 11.769531 C 15.304688 11.769531 18.316406 11.796875 21.328125 11.753906 C 22.792969 11.734375 24.070312 12.910156 24.015625 14.417969 C 23.953125 16.097656 23.996094 17.78125 24 19.464844 C 24.003906 20.566406 23.042969 21.582031 21.980469 21.769531 C 21.578125 21.839844 21.164062 21.863281 20.753906 21.863281 C 18.332031 21.871094 15.90625 21.867188 13.4375 21.867188 Z M 13.4375 21.867188 "/>
<path style=" stroke:none;fill-rule:nonzero;fill:rgb(0%,36.470588%,95.294118%);fill-opacity:1;" d="M 29.1875 32.433594 C 31.640625 32.433594 34.046875 32.433594 36.480469 32.433594 C 36.480469 33.757812 36.480469 35.0625 36.480469 36.398438 C 36.332031 36.402344 36.183594 36.417969 36.035156 36.417969 C 32.699219 36.417969 29.367188 36.402344 26.035156 36.425781 C 25.054688 36.433594 24.027344 35.472656 24.082031 34.398438 C 24.132812 33.296875 24.945312 32.433594 26.042969 32.433594 C 27.074219 32.433594 28.109375 32.433594 29.1875 32.433594 Z M 29.1875 32.433594 "/>
</g>
</svg>
