<svg width="20" height="20" viewBox="0 0 20 20" fill="none" xmlns="http://www.w3.org/2000/svg">
<path d="M3.2194 0.833313C8.69954 0.833313 14.1797 0.833313 19.668 0.833313C19.668 6.35577 19.668 11.8766 19.6533 17.4219C19.6224 17.5097 19.6045 17.5749 19.5882 17.6383C19.1764 19.2464 17.9362 20.4687 16.3086 20.7584C16.2793 20.7633 16.2565 20.8073 16.2305 20.8333C10.7129 20.8333 5.19368 20.8333 -0.332031 20.8333C-0.332031 15.3239 -0.332031 9.81443 -0.31901 4.28221C-0.255534 4.08038 -0.213216 3.89972 -0.154622 3.72394C0.0895183 2.97524 0.486654 2.32908 1.09538 1.81476C1.48763 1.48273 1.91244 1.2158 2.40072 1.05467C2.66764 0.965149 2.94596 0.906555 3.2194 0.833313ZM6.09538 4.19269C5.63965 4.19269 5.18229 4.1878 4.72656 4.19594C4.64844 4.19757 4.55241 4.23663 4.49544 4.29197C4.0446 4.73143 3.60514 5.18227 3.1543 5.62335C3.0599 5.71613 3.02409 5.8089 3.02409 5.94073C3.02734 8.59047 3.02734 11.2402 3.02734 13.89C3.02734 13.9599 3.02734 14.0283 3.02734 14.1048C3.53516 14.1048 4.02669 14.1048 4.53613 14.1048C4.53613 13.1917 4.53613 12.2884 4.53613 11.3737C4.62402 11.3737 4.69401 11.3737 4.764 11.3737C6.1263 11.3737 7.49023 11.3786 8.85417 11.3704C9.48405 11.3672 10.0244 11.1084 10.4557 10.6706C10.9131 10.2067 11.1393 9.62563 11.1361 8.9632C11.1312 8.21613 11.1361 7.47068 11.1328 6.72361C11.1328 6.56573 11.1165 6.40786 11.0954 6.25161C10.9993 5.55011 10.6543 5.00812 10.0716 4.6061C9.64355 4.3115 9.16341 4.20571 8.66211 4.19594C7.82064 4.18129 6.97754 4.19269 6.09538 4.19269ZM12.6595 11.4127C13.1299 11.4127 13.5986 11.4095 14.069 11.4127C14.3115 11.416 14.502 11.5267 14.6484 11.7187C14.8991 12.0459 14.8356 12.4219 14.8372 12.8027C14.7477 12.8027 14.6777 12.8027 14.6077 12.8027C13.2959 12.8027 11.9824 12.7962 10.6706 12.8043C10.2344 12.8076 9.81445 12.8906 9.41732 13.0989C8.44564 13.61 7.97526 14.7184 8.25846 15.7194C8.57585 16.8408 9.44173 17.4479 10.5436 17.4674C11.9076 17.4935 13.2715 17.4756 14.6354 17.4691C14.7184 17.4691 14.8226 17.4267 14.8812 17.3681C15.3239 16.9385 15.7552 16.4957 16.1979 16.0644C16.2842 15.9782 16.3102 15.8952 16.3102 15.778C16.307 14.6207 16.3102 13.4619 16.307 12.303C16.307 12.1647 16.2891 12.0263 16.2695 11.888C16.1035 10.7747 15.1139 9.9186 13.9421 9.90721C13.1901 9.9007 12.4365 9.90558 11.6829 9.90558C11.6211 9.90558 11.5592 9.90558 11.4941 9.90558C11.4941 10.4166 11.4941 10.9082 11.4941 11.4127C11.8766 11.4127 12.2493 11.4127 12.6595 11.4127Z" fill="white"/>
<path d="M6.11426 4.1927C6.97689 4.1927 7.81999 4.1813 8.66146 4.19595C9.16276 4.20572 9.6429 4.31151 10.071 4.60611C10.6536 5.00813 10.9987 5.55012 11.0947 6.25162C11.1159 6.40787 11.1322 6.56574 11.1322 6.72362C11.1354 7.47069 11.1305 8.21614 11.1354 8.96321C11.1387 9.62564 10.9124 10.2067 10.4551 10.6706C10.0238 11.1084 9.4834 11.3672 8.85352 11.3704C7.48958 11.3786 6.12565 11.3737 4.76335 11.3737C4.69336 11.3737 4.62337 11.3737 4.53548 11.3737C4.53548 12.2884 4.53548 13.1917 4.53548 14.1048C4.02604 14.1048 3.5345 14.1048 3.02669 14.1048C3.02669 14.0283 3.02669 13.9599 3.02669 13.89C3.02669 11.2402 3.02669 8.59048 3.02344 5.94074C3.02344 5.80891 3.05924 5.71614 3.15365 5.62336C3.60449 5.18228 4.04394 4.73144 4.49479 4.29198C4.55176 4.23664 4.64779 4.19758 4.72591 4.19595C5.18164 4.18781 5.639 4.1927 6.11426 4.1927ZM5.24674 9.90559C6.25586 9.90559 7.2666 9.90722 8.27572 9.90396C8.44661 9.90396 8.61914 9.8942 8.78678 9.8649C9.22949 9.78677 9.62988 9.3636 9.62825 8.90461C9.62663 8.20311 9.60872 7.50162 9.63477 6.80175C9.65755 6.17349 9.12533 5.68358 8.51497 5.69172C7.26009 5.70963 6.00521 5.69823 4.75033 5.69823C4.68197 5.69823 4.61361 5.69823 4.54362 5.69823C4.54362 7.11099 4.54362 8.50259 4.54362 9.90559C4.77148 9.90559 4.98958 9.90559 5.24674 9.90559Z" fill="#0053DB"/>
<path d="M12.6389 11.4127C12.2482 11.4127 11.8755 11.4127 11.493 11.4127C11.493 10.9082 11.493 10.4166 11.493 9.90557C11.5581 9.90557 11.62 9.90557 11.6818 9.90557C12.4354 9.90557 13.189 9.90068 13.941 9.90719C15.1128 9.91859 16.1024 10.7747 16.2684 11.888C16.288 12.0263 16.3059 12.1647 16.3059 12.303C16.3091 13.4619 16.3059 14.6207 16.3091 15.778C16.3091 15.8951 16.2831 15.9782 16.1968 16.0644C15.7541 16.4957 15.3228 16.9384 14.8801 17.3681C14.8215 17.4267 14.7173 17.469 14.6343 17.469C13.2704 17.4756 11.9065 17.4935 10.5425 17.4674C9.44063 17.4479 8.57474 16.8408 8.25736 15.7194C7.97416 14.7184 8.44454 13.61 9.41622 13.0989C9.81335 12.8906 10.2333 12.8076 10.6695 12.8043C11.9813 12.7962 13.2948 12.8027 14.6066 12.8027C14.6766 12.8027 14.7466 12.8027 14.8361 12.8027C14.8345 12.4218 14.898 12.0459 14.6473 11.7187C14.5009 11.5267 14.3104 11.416 14.0679 11.4127C13.5975 11.4095 13.1288 11.4127 12.6389 11.4127ZM11.7714 14.3082C11.34 14.3082 10.9087 14.3082 10.479 14.3082C10.0217 14.3082 9.68314 14.6679 9.66198 15.1269C9.6392 15.5745 10.0673 15.9749 10.4758 15.9716C11.8641 15.9619 13.2525 15.9684 14.6425 15.9684C14.7043 15.9684 14.7662 15.9619 14.828 15.9603C14.828 15.4036 14.828 14.86 14.828 14.3082C13.814 14.3082 12.8114 14.3082 11.7714 14.3082Z" fill="#0053DB"/>
<path d="M5.22656 9.90556C4.98893 9.90556 4.77083 9.90556 4.54297 9.90556C4.54297 8.50256 4.54297 7.11096 4.54297 5.6982C4.61296 5.6982 4.68131 5.6982 4.74967 5.6982C6.00456 5.6982 7.25944 5.70959 8.51432 5.69169C9.12467 5.68355 9.6569 6.17346 9.63411 6.80172C9.60807 7.50158 9.62598 8.20308 9.6276 8.90458C9.62923 9.36356 9.22884 9.78674 8.78613 9.86487C8.61849 9.89416 8.44596 9.90393 8.27506 9.90393C7.26595 9.90718 6.25521 9.90556 5.22656 9.90556Z" fill="white"/>
<path d="M11.7922 14.3082C12.8143 14.3082 13.817 14.3082 14.8309 14.3082C14.8309 14.86 14.8309 15.4036 14.8309 15.9602C14.7691 15.9619 14.7073 15.9684 14.6454 15.9684C13.2554 15.9684 11.8671 15.9619 10.4787 15.9716C10.0702 15.9749 9.64215 15.5745 9.66493 15.1269C9.68609 14.6679 10.0246 14.3082 10.482 14.3082C10.9117 14.3082 11.343 14.3082 11.7922 14.3082Z" fill="white"/>
</svg>
