<svg width="19" height="19" viewBox="0 0 19 19" fill="none" xmlns="http://www.w3.org/2000/svg">
    <path d="M14.4222 14.2564C13.6967 14.2564 13.0143 13.9717 12.5012 13.4549L9.72744 10.6596C9.53268 10.4628 9.19326 10.4634 8.99859 10.6596L6.21471 13.4651C5.70163 13.9819 5.01922 14.2666 4.29369 14.2666H3.74707L7.26013 17.8068C8.35723 18.9124 10.1361 18.9124 11.2333 17.8068L14.7563 14.2564H14.4222Z" fill="#00174B"/>
    <path d="M4.29354 4.36936C5.01907 4.36936 5.70148 4.65405 6.21455 5.17084L8.99843 7.97679C9.19892 8.17892 9.52629 8.17967 9.72728 7.97655L12.501 5.18107C13.0141 4.66428 13.6965 4.37959 14.422 4.37959H14.7561L11.2332 0.829262C10.1359 -0.276421 8.35707 -0.276421 7.25997 0.829262L3.74707 4.36937L4.29354 4.36936Z" fill="#00174B"/>
    <path d="M17.6703 7.31612L15.5413 5.17065C15.4944 5.18957 15.4436 5.20138 15.39 5.20138H14.4221C13.9216 5.20138 13.4317 5.40594 13.0781 5.76255L10.3044 8.55778C10.0449 8.81936 9.7038 8.95023 9.36305 8.95023C9.02198 8.95023 8.68115 8.81936 8.42167 8.55803L5.63753 5.75234C5.2839 5.39564 4.79401 5.19117 4.29357 5.19117H3.10333C3.05256 5.19117 3.00512 5.17911 2.96034 5.16211L0.822888 7.31612C-0.274296 8.4218 -0.274296 10.2143 0.822888 11.32L2.96025 13.4739C3.00512 13.4569 3.05256 13.4449 3.10333 13.4449H4.29357C4.79401 13.4449 5.2839 13.2404 5.63753 12.8838L8.42141 10.0784C8.92459 9.57169 9.80176 9.57153 10.3044 10.0786L13.0781 12.8736C13.4317 13.2302 13.9216 13.4347 14.4221 13.4347H15.39C15.4436 13.4347 15.4944 13.4465 15.5413 13.4655L17.6703 11.32C18.7674 10.2143 18.7674 8.4218 17.6703 7.31612Z" fill="#00174B"/>
</svg>
