<svg width="20" height="20" viewBox="0 0 20 20" fill="none" xmlns="http://www.w3.org/2000/svg">
<g id="preview">
<path id="Vector" d="M4.16667 17.5C3.70833 17.5 3.31597 17.3368 2.98958 17.0104C2.66319 16.684 2.5 16.2917 2.5 15.8333V4.16667C2.5 3.70833 2.66319 3.31597 2.98958 2.98958C3.31597 2.66319 3.70833 2.5 4.16667 2.5H15.8333C16.2917 2.5 16.684 2.66319 17.0104 2.98958C17.3368 3.31597 17.5 3.70833 17.5 4.16667V15.8333C17.5 16.2917 17.3368 16.684 17.0104 17.0104C16.684 17.3368 16.2917 17.5 15.8333 17.5H4.16667ZM4.16667 15.8333H15.8333V5.83333H4.16667V15.8333ZM10 14.1667C8.86111 14.1667 7.84375 13.8576 6.94792 13.2396C6.05208 12.6215 5.40278 11.8194 5 10.8333C5.40278 9.84722 6.05208 9.04514 6.94792 8.42708C7.84375 7.80903 8.86111 7.5 10 7.5C11.1389 7.5 12.1562 7.80903 13.0521 8.42708C13.9479 9.04514 14.5972 9.84722 15 10.8333C14.5972 11.8194 13.9479 12.6215 13.0521 13.2396C12.1562 13.8576 11.1389 14.1667 10 14.1667ZM10 12.0833C9.65278 12.0833 9.35764 11.9618 9.11458 11.7188C8.87153 11.4757 8.75 11.1806 8.75 10.8333C8.75 10.4861 8.87153 10.191 9.11458 9.94792C9.35764 9.70486 9.65278 9.58333 10 9.58333C10.3472 9.58333 10.6424 9.70486 10.8854 9.94792C11.1285 10.191 11.25 10.4861 11.25 10.8333C11.25 11.1806 11.1285 11.4757 10.8854 11.7188C10.6424 11.9618 10.3472 12.0833 10 12.0833ZM10 12.9167C10.5833 12.9167 11.0764 12.7153 11.4792 12.3125C11.8819 11.9097 12.0833 11.4167 12.0833 10.8333C12.0833 10.25 11.8819 9.75694 11.4792 9.35417C11.0764 8.95139 10.5833 8.75 10 8.75C9.41667 8.75 8.92361 8.95139 8.52083 9.35417C8.11806 9.75694 7.91667 10.25 7.91667 10.8333C7.91667 11.4167 8.11806 11.9097 8.52083 12.3125C8.92361 12.7153 9.41667 12.9167 10 12.9167Z" fill="#00174B"/>
</g>
</svg>
