<?xml version="1.0" encoding="utf-8"?>
<!-- Generator: Adobe Illustrator 22.1.0, SVG Export Plug-In . SVG Version: 6.00 Build 0)  -->
<svg version="1.1" id="Layer_1" xmlns="http://www.w3.org/2000/svg" xmlns:xlink="http://www.w3.org/1999/xlink" x="0px" y="0px"
	 viewBox="0 0 24 24" style="enable-background:new 0 0 24 24;" xml:space="preserve">
<style type="text/css">
	.st0{fill:none;}
	.st1{fill:#1455BE;}
</style>
<path class="st0" d="M0,0h24v24H0V0z"/>
<g>
	<path class="st1" d="M14,9h-4C9.4,9,9,8.6,9,8l0,0c0-0.6,0.4-1,1-1h4c0.6,0,1,0.4,1,1l0,0C15,8.6,14.6,9,14,9z"/>
	<path class="st1" d="M14,12h-4c-0.6,0-1-0.4-1-1l0,0c0-0.6,0.4-1,1-1h4c0.6,0,1,0.4,1,1l0,0C15,11.6,14.6,12,14,12z"/>
	<path class="st1" d="M19.5,3.5L18,2l-1.5,1.5L15,2l-1.5,1.5L12,2l-1.5,1.5L9,2L7.5,3.5L6,2v14H4c-0.5,0-1,0.5-1,1v2
		c0,1.7,1.3,3,3,3h12c1.7,0,3-1.3,3-3V2L19.5,3.5z M15,20H6c-0.6,0-1-0.5-1-1v-1h3h4h3V20z M19,19c0,0.5-0.5,1-1,1s-1-0.5-1-1v-2
		c0-0.5-0.5-1-1-1h-2h-2H8V5h11V19z"/>
	<circle class="st1" cx="17" cy="8" r="1"/>
	<circle class="st1" cx="17" cy="11" r="1"/>
</g>
</svg>
