
<svg width="24" height="24" viewBox="0 0 24 24" fill="none" xmlns="http://www.w3.org/2000/svg">
    <g clip-path="url(#clip0_2443_26908)">
        <path d="M13.1621 16.2314C12.5371 16.2314 12.0059 16.0127 11.5684 15.5752C11.1309 15.1377 10.9121 14.6064 10.9121 13.9814C10.9121 13.8939 10.9184 13.8033 10.9309 13.7096C10.9434 13.6158 10.9621 13.5314 10.9871 13.4564L5.69961 10.3814C5.48711 10.5689 5.24961 10.7158 4.98711 10.8221C4.72461 10.9283 4.44961 10.9814 4.16211 10.9814C3.53711 10.9814 3.00586 10.7627 2.56836 10.3252C2.13086 9.8877 1.91211 9.35645 1.91211 8.73145C1.91211 8.10645 2.13086 7.5752 2.56836 7.1377C3.00586 6.7002 3.53711 6.48145 4.16211 6.48145C4.44961 6.48145 4.72461 6.53457 4.98711 6.64082C5.24961 6.74707 5.48711 6.89395 5.69961 7.08145L10.9871 4.00645C10.9621 3.93145 10.9434 3.84707 10.9309 3.75332C10.9184 3.65957 10.9121 3.56895 10.9121 3.48145C10.9121 2.85645 11.1309 2.3252 11.5684 1.8877C12.0059 1.4502 12.5371 1.23145 13.1621 1.23145C13.7871 1.23145 14.3184 1.4502 14.7559 1.8877C15.1934 2.3252 15.4121 2.85645 15.4121 3.48145C15.4121 4.10645 15.1934 4.6377 14.7559 5.0752C14.3184 5.5127 13.7871 5.73145 13.1621 5.73145C12.8746 5.73145 12.5996 5.67832 12.3371 5.57207C12.0746 5.46582 11.8371 5.31895 11.6246 5.13145L6.33711 8.20645C6.36211 8.28145 6.38086 8.36582 6.39336 8.45957C6.40586 8.55332 6.41211 8.64395 6.41211 8.73145C6.41211 8.81895 6.40586 8.90957 6.39336 9.00332C6.38086 9.09707 6.36211 9.18145 6.33711 9.25644L11.6246 12.3314C11.8371 12.1439 12.0746 11.9971 12.3371 11.8908C12.5996 11.7846 12.8746 11.7314 13.1621 11.7314C13.7871 11.7314 14.3184 11.9502 14.7559 12.3877C15.1934 12.8252 15.4121 13.3564 15.4121 13.9814C15.4121 14.6064 15.1934 15.1377 14.7559 15.5752C14.3184 16.0127 13.7871 16.2314 13.1621 16.2314Z" fill="#00174B" />
    </g>
    <defs>
        <clipPath id="clip0_2443_26908">
            <path d="M0 4C0 1.79086 1.79086 0 4 0H14C16.2091 0 18 1.79086 18 4V14C18 16.2091 16.2091 18 14 18H4C1.79086 18 0 16.2091 0 14V4Z" fill="white" />
        </clipPath>
    </defs>
</svg>