<svg width="13" height="14" viewBox="0 0 13 14" fill="none" xmlns="http://www.w3.org/2000/svg">
<path d="M10.6992 13.4281C10.1437 13.4281 9.67144 13.2336 9.28255 12.8447C8.89366 12.4558 8.69922 11.9836 8.69922 11.4281C8.69922 11.3503 8.70477 11.2697 8.71589 11.1864C8.727 11.1031 8.74366 11.0281 8.76589 10.9614L4.06589 8.22806C3.877 8.39473 3.66589 8.52528 3.43255 8.61973C3.19922 8.71417 2.95477 8.76139 2.69922 8.76139C2.14366 8.76139 1.67144 8.56695 1.28255 8.17806C0.893663 7.78917 0.699219 7.31695 0.699219 6.76139C0.699219 6.20584 0.893663 5.73361 1.28255 5.34473C1.67144 4.95584 2.14366 4.76139 2.69922 4.76139C2.95477 4.76139 3.19922 4.80862 3.43255 4.90306C3.66589 4.9975 3.877 5.12806 4.06589 5.29473L8.76589 2.56139C8.74366 2.49473 8.727 2.41973 8.71589 2.33639C8.70477 2.25306 8.69922 2.1725 8.69922 2.09473C8.69922 1.53917 8.89366 1.06695 9.28255 0.67806C9.67144 0.289171 10.1437 0.0947266 10.6992 0.0947266C11.2548 0.0947266 11.727 0.289171 12.1159 0.67806C12.5048 1.06695 12.6992 1.53917 12.6992 2.09473C12.6992 2.65028 12.5048 3.1225 12.1159 3.51139C11.727 3.90028 11.2548 4.09473 10.6992 4.09473C10.4437 4.09473 10.1992 4.0475 9.96589 3.95306C9.73255 3.85862 9.52144 3.72806 9.33255 3.56139L4.63255 6.29473C4.65477 6.36139 4.67144 6.43639 4.68255 6.51973C4.69366 6.60306 4.69922 6.68362 4.69922 6.76139C4.69922 6.83917 4.69366 6.91973 4.68255 7.00306C4.67144 7.08639 4.65477 7.16139 4.63255 7.22806L9.33255 9.96139C9.52144 9.79473 9.73255 9.66417 9.96589 9.56973C10.1992 9.47528 10.4437 9.42806 10.6992 9.42806C11.2548 9.42806 11.727 9.6225 12.1159 10.0114C12.5048 10.4003 12.6992 10.8725 12.6992 11.4281C12.6992 11.9836 12.5048 12.4558 12.1159 12.8447C11.727 13.2336 11.2548 13.4281 10.6992 13.4281Z" fill="#0053DB"/>
</svg>
