<svg width="40" height="40" viewBox="0 0 40 40" fill="none" xmlns="http://www.w3.org/2000/svg">
<mask id="mask0_4527_28784" style="mask-type:alpha" maskUnits="userSpaceOnUse" x="0" y="0" width="40" height="40">
<rect width="40" height="40" fill="#FFB900"/>
</mask>
<g mask="url(#mask0_4527_28784)">
<circle cx="19.9997" cy="19.9987" r="6.66667" fill="#FFB900"/>
<path d="M18.3337 8.33464V1.66797H21.667V8.33464H18.3337ZM29.417 12.918L27.1253 10.6263L31.792 5.83464L34.1253 8.20964L29.417 12.918ZM31.667 21.668V18.3346H38.3337V21.668H31.667ZM18.3337 38.3346V31.668H21.667V38.3346H18.3337ZM10.5837 12.8346L5.83366 8.20964L8.20866 5.8763L12.917 10.5846L10.5837 12.8346ZM31.7503 34.168L27.1253 29.3763L29.3753 27.1263L34.1253 31.7096L31.7503 34.168ZM1.66699 21.668V18.3346H8.33366V21.668H1.66699ZM8.20866 34.168L5.87533 31.793L10.542 27.1263L11.7503 28.2513L12.9587 29.418L8.20866 34.168ZM20.0003 30.0013C17.2225 30.0013 14.8614 29.0291 12.917 27.0846C10.9725 25.1402 10.0003 22.7791 10.0003 20.0013C10.0003 17.2235 10.9725 14.8624 12.917 12.918C14.8614 10.9735 17.2225 10.0013 20.0003 10.0013C22.7781 10.0013 25.1392 10.9735 27.0837 12.918C29.0281 14.8624 30.0003 17.2235 30.0003 20.0013C30.0003 22.7791 29.0281 25.1402 27.0837 27.0846C25.1392 29.0291 22.7781 30.0013 20.0003 30.0013ZM20.0003 26.668C21.8337 26.668 23.4031 26.0152 24.7087 24.7096C26.0142 23.4041 26.667 21.8346 26.667 20.0013C26.667 18.168 26.0142 16.5985 24.7087 15.293C23.4031 13.9874 21.8337 13.3346 20.0003 13.3346C18.167 13.3346 16.5975 13.9874 15.292 15.293C13.9864 16.5985 13.3337 18.168 13.3337 20.0013C13.3337 21.8346 13.9864 23.4041 15.292 24.7096C16.5975 26.0152 18.167 26.668 20.0003 26.668Z" fill="#FFB900"/>
</g>
</svg>
