<svg width="20" height="20" viewBox="0 0 20 20" fill="none" xmlns="http://www.w3.org/2000/svg">
<path d="M0.833008 17.4993L9.99967 1.66602L19.1663 17.4993H0.833008ZM9.99967 14.9993C10.2358 14.9993 10.4337 14.9195 10.5934 14.7598C10.7531 14.6 10.833 14.4021 10.833 14.166C10.833 13.9299 10.7531 13.732 10.5934 13.5723C10.4337 13.4125 10.2358 13.3327 9.99967 13.3327C9.76356 13.3327 9.56565 13.4125 9.40592 13.5723C9.2462 13.732 9.16634 13.9299 9.16634 14.166C9.16634 14.4021 9.2462 14.6 9.40592 14.7598C9.56565 14.9195 9.76356 14.9993 9.99967 14.9993ZM9.16634 12.4993H10.833V8.33268H9.16634V12.4993Z" fill="#FFB900"/>
</svg>
